<svg xmlns="http://www.w3.org/2000/svg" viewBox="0 0 3000 3000" width="3000" height="3000"><g transform="translate(176.0 60.0) rotate(0.0 1314.0 1428.0) scale(4.012342380442732 4.00513262794758)"><svg width="654.979" height="713.085" viewBox="0 0 654.979 713.085"><g data-name="upload"><path d="M83.781 255.573c-1.5-2.098-3.055-4.153-4.316-6.428-6.156-11.105-10.496-22.937-14.116-35.065-3.759-12.592-6.424-25.401-7.727-38.482-.627-6.292-.735-12.607-.74-18.926-.009-12.076.121-24.151.701-36.212.831-17.27 2.714-34.409 7.018-51.211.855-3.338 2.109-6.536 3.263-9.771.107-.3.211-.611.381-.875.335-.518.802-.79 1.424-.493.489.234.698.656.582 1.18a21.378 21.378 0 0 1-.549 2.085c-3.392 10.298-5.157 20.941-6.483 31.65-3.002 24.258-3.385 48.636-2.765 73.029.365 14.367 3.093 28.409 6.817 42.267 3.699 13.764 8.393 27.169 14.221 40.179 1 2.232 1.828 4.542 2.735 6.816l-.445.258Zm464.017 131.091c-.05-.674.519-.929.894-1.283 16.699-15.738 31.141-33.441 44.961-51.682 13.472-17.781 24.739-36.888 34.031-57.151 7.286-15.887 12.3-32.558 16.651-49.443 2.273-8.819 4.462-17.659 6.008-26.638.976-5.666 1.781-11.362 2.656-17.046.122-.792.228-1.592.643-2.29.102-.172.393-.306.607-.321.344-.025.633.206.656.549.054.794.103 1.597.05 2.39-.402 5.982-1.035 11.947-2.076 17.846-4.108 23.265-9.87 46.117-18.903 67.976-11.152 26.987-26.44 51.562-44.759 74.292-12.07 14.977-25.263 28.866-39.473 41.809-.752.685-.746.691-1.946.992ZM99.062 148.469c-.624-.306-.503-.836-.491-1.273.162-5.999-.749-11.941-.956-17.925-.208-6.002.109-11.971.354-17.948.349-8.536 1.092-17.04 2.792-25.432.187-.925.144-1.927.811-2.713.322-.379.694-.735 1.217-.555.394.135.605.551.617.954.029.955.085 1.924-.033 2.867-1 8.005-1.463 16.049-1.835 24.1-.461 9.963-.666 19.94-1.711 29.872-.225 2.136-.117 4.306-.181 6.46-.017.589.174 1.293-.584 1.593Zm538.754-78.791c1.928.344 2.626 1.727 3.35 3.054 3.498 6.415 5.999 13.217 8.115 20.202 1.375 4.538 1.21 9.161 1.485 13.773.035.59-.079 1.156-.812 1.241-.847.098-.801-.56-.882-1.105-1.197-8.022-3.726-15.679-6.447-23.277-1.293-3.611-2.733-7.171-4.509-10.58-.538-1.033-.87-2.054-.3-3.307ZM121.451 240.306c-1.99-2.578-3.24-4.981-4.416-7.407-4.006-8.26-7.614-16.687-10.428-25.436-1.15-3.576-1.846-7.26-2.468-10.957-.066-.392-.079-.794-.099-1.192-.041-.796-.201-1.727.905-1.895 1.159-.176 1.203.883 1.376 1.588.644 2.632 1.212 5.283 1.796 7.929 1.815 8.22 5.071 15.946 8.152 23.729 1.379 3.485 2.851 6.933 4.265 10.404.355.87.817 1.712.918 3.237ZM118.727.208c-.028 1.013-.937 1.213-1.556 1.618-8.905 5.819-17.232 12.409-25.47 19.112-2.163 1.76-4.303 3.579-5.935 5.893-.137.194-.288.391-.473.533-.52.399-1.118.788-1.7.219-.49-.479-.171-1.053.132-1.527 1.216-1.899 2.775-3.506 4.436-5.007 4.866-4.398 10.088-8.347 15.445-12.12 4.181-2.945 8.594-5.527 12.926-8.234.65-.406 1.296-1.019 2.195-.486ZM536.24 222.503c-.26.938-.499 2.116-.911 3.23a44.24 44.24 0 0 1-7.17 12.609c-1.304 1.609-2.676 3.162-4.023 4.736-.31.362-.604.761-.983 1.036-.428.311-.984.77-1.48.243-.535-.569.072-1.024.403-1.422 4.153-4.99 7.461-10.503 10.22-16.364a33.93 33.93 0 0 0 1.778-4.683c.177-.587.379-1.385 1.168-1.282.87.113.992.91.998 1.897Zm-45.159 463.41c1.497-1.629 3.34-1.693 5.267-1.379 1.84.3 3.293 1.179 4.069 2.956.292.669.381 1.356.248 2.101-.484 2.724-3.237 4.971-5.997 4.846-.562-.026-1.109-.104-1.614-.385-.722-.402-1.116-.97-.682-1.76.388-.705.975-.958 1.806-.566 1.644.776 2.25.636 2.85-.518.732-1.409.374-2.691-.985-3.487-.631-.369-1.344-.479-2.046-.639a25.023 25.023 0 0 1-2.29-.659c-.203-.067-.357-.284-.627-.51Zm-386.475-87.317c-.74 1.177-1.946 1.861-2.186 3.197-.143.798-.463 1.624.41 2.15.87.524 1.67.226 2.388-.431 1.822-1.667 2.237-3.771 1.058-5.721.539-.613 1.283-.518 1.958-.466 1.544.12 2.109.88 1.714 2.434-.711 2.795-2.412 4.84-5.062 5.985-1.832.792-3.995.282-4.8-.968-.713-1.107-.345-3.323.89-4.65.904-.971 1.88-1.952 3.628-1.531ZM4.378 525.192c.791 1.76.587 3.616.176 5.397-.286 1.238-2.072 1.93-3.125 1.429-1.162-.554-1.886-2.462-1.1-3.472.74-.952 1.346-1.684.503-2.884-1.683-2.947 2.535-2.72 3.546-.47Zm130.31-344.304c.966.119 1.237.79 1.426 1.501.966 3.626 1.918 7.256 2.874 10.884.366 1.389.739 2.776 1.095 4.167.119.466.251 1-.394 1.174-.512.138-.668-.312-.791-.688-1.489-4.548-3.559-8.904-4.518-13.625-.174-.855-.253-1.736-.302-2.608-.023-.405.201-.756.609-.805ZM7.978 619.134c-.009 1.638-.94 2.849-2.387 3.106-1.164.207-2.319-.543-2.977-1.893-.439-.9-.458-1.846-.298-2.787.243-1.429 1.153-1.886 2.577-1.378.444.159.897.296 1.336.466 1.316.51 1.757 1.143 1.749 2.485Zm465.814 66.375c1.179.043 2.172.844 2.183 1.761.011.922-1.765 2.782-2.625 2.749-1.155-.043-3.011-1.55-2.924-2.373.112-1.053 1.904-2.191 3.366-2.138ZM64.913 626.183c0-2.779 3.728-1.349 5.454-.975.963.209 1.921.7 1.918 1.901-.002 1.067-.667 1.817-1.572 2.311-.927.505-1.679.215-2.122-.704-.643-1.334-3.679.247-3.679-2.532Zm402.76 75.224c.368 1.554-4.648 3.199-6.816 2.419-.533-.192-.938-.51-.937-1.055.001-.522.372-.963.857-1.155 2.228-.879 6.528-1.764 6.896-.21Zm-111.367 8.034c1.895-2.211 5.937 1.2 4.421 3.032s-6.316-.821-4.421-3.032Zm242.062-525.956c-.095.315-.177.943-.389 2.713a367.367 367.367 0 0 1-1.824 13.298c-1.465 9.347-4.092 18.397-6.916 27.397-4.093 13.044-8.437 25.998-14.202 38.423-8.413 18.134-19.032 34.941-30.825 51.033-9.762 13.322-20.954 25.406-32.379 37.287-.375.39-.702.897-1.514.856-.182-.849.533-1.237.966-1.685 8.306-8.576 15.77-17.867 22.958-27.372 13.38-17.692 25.661-36.09 35.493-56.042 6.628-13.452 11.493-27.57 16.059-41.808 3.762-11.73 7.062-23.574 8.877-35.788.305-2.054.662-4.101.986-6.153.168-1.062.272-1.805.308-2.013s2.497-.464 2.401-.149Z"/></g></svg></g><g transform="translate(56.0 136.0) rotate(0.0 1448.0 1402.0) scale(3.9927039401756184 3.9960837239395914)"><svg width="725.323" height="701.687" viewBox="0 0 725.323 701.687"><path d="M627.227 165.364c-3.498.36-6.988.802-10.485 1.177-10.658 1.143-21.332 2.011-32.065 1.849-.799-.012-1.61-.005-2.392-.142-1.98-.347-3.951-.796-5.513 1.03-6.706 2.31-13.132 5.378-20.035 7.166-12.014 3.111-24.219 5.157-36.508 6.755-5.309.691-10.632 1.271-15.949 1.905-1.732.206-1.811.213-1.745 2.088.127 3.594.285 7.19.551 10.776.933 12.596.166 25.082-2.264 37.473-.891 4.541-1.314 9.17-2.637 13.63-.295.993-.405 2.045-1.042 2.909-.461.625-.564 1.365-.443 2.062 1.1 6.345-.889 12.095-3.784 17.492-2.659 4.957-4.333 10.277-6.535 15.397-.347.807-.654 1.633-1.036 2.423-.457.945-1.079 1.773-1.963 2.378-2.238 1.532-2.967 3.694-2.557 6.291.175 1.111-.392 1.841-1.141 2.476-1.365 1.159-2.976 1.871-4.681 2.348-4.996 1.4-9.938 3.039-15.116 3.668-1.726.21-2.891.822-3.534 2.6-.674 1.862-1.551 3.688-3.113 5.059-.555.487-.763 1.217-1.007 1.889-1.368 3.775-2.316 7.64-2.49 11.673-.052 1.198-.109 2.4-.269 3.587-.605 4.506-4.636 6.868-8.967 5.293-.13-.047-.293-.006-.685-.006.646 3.051 1.303 6.066 1.92 9.09 2.368 11.604 4.11 23.303 4.985 35.113.525 7.095.733 14.214 1.084 21.321.032.638.046 1.278.1 1.915.232 2.716.137 5.36-.488 8.073-1.067 4.628-.818 9.38-.445 14.089.567 7.169 1.286 14.327 1.803 21.5.712 9.886 1.188 19.79 1.97 29.67.606 7.653 2.031 15.203 3.521 22.73 2.234 11.287 4.479 22.575 6.181 33.955 1.725 11.539 3.199 23.112 4.204 34.745.99 11.47 1.968 22.942 2.568 34.437.396 7.59 1.372 15.127 1.78 22.711.033.616-.054 1.273.371 1.933 4.252-1.034 8.495-.886 12.672.554 2.657.917 5.134 2.215 7.546 3.635 2.267 1.334 4.341 3.008 6.888 3.847.37.122.761.329.674.844-.075.444-.409.676-.804.783-.962.26-1.884.113-2.808-.252-1.802-.712-3.395-1.773-4.983-2.851-2.99-2.03-6.119-3.779-9.648-4.7-3.337-.871-6.581-.828-9.857.504-3.952 1.606-7.762 3.422-11.007 6.221-6.95 5.996-26.469 16.944-28.284 17.955-.914.509-1.832.989-2.915.997-1.582.012-1.982-.625-1.272-2.048.121-.242.308-.451.479-.694-1.035-.401-1.747.112-2.458.385-9.314 3.573-17.873 8.519-25.928 14.368-.32.233-.837.488-.869.777-.219 1.961-1.285 3.836-1.02 5.785.268 1.975.377 3.961.657 5.928.184 1.293-.394 2.128-1.327 2.868-.842.668-1.857.92-2.843 1.228-.935.292-1.748-.175-2.395-.741-1.962-1.719-2.723-5.202-1.729-7.736.816-2.079 1.853-4.081 1.77-6.416-.041-1.158-4.155-4.947-6.382-4.443-2.244.508-2.941-.125-2.467-2.381.139-.663-.004-1.034-.469-1.443-5.872-5.16-7.823-12.146-8.614-19.477-1.277-11.834.329-23.448 3.526-34.856 1.511-5.392 3.406-10.655 5.8-15.727.406-.86.744-1.789 1.694-2.249.517-.25 1.045-.48 1.545.003.462.446.113.902-.07 1.316-2.325 5.28-4.064 10.763-5.594 16.311-2.915 10.565-4.132 21.332-3.515 32.279.29 5.156 1.537 10.099 3.846 14.747.934 1.88 2.171 3.535 3.658 5.015.511.508 1.022.781 1.665.261 2.724-2.203 5.8-3.866 8.749-5.942-1.072.053-2.144.12-3.217.155-.878.029-1.759.063-2.635.013-.556-.032-1.161-.178-1.343-.818-.18-.631.25-1.056.688-1.413.817-.666 1.787-1.046 2.762-1.41 5.337-1.992 10.89-3.158 16.459-4.229 5.968-1.148 11.98-2.002 18.051-2.401.479-.031 4.109-.729 5.67-.87 2.003-.181 4.805.942 3.352 1.889s-5.549 2.325-6.967 2.779c-1.44.461-2.934.794-4.427 1.047-7.433 1.256-14.655 3.254-21.643 6.076-3.631 1.466-7.237 3.003-10.531 5.159-.633.414-1.467.649-1.719 1.52.165.074.328.217.434.183.679-.221 1.36-.448 2.013-.734 7.62-3.343 15.302-6.459 23.618-7.715 5.442-.822 10.927-1.525 16.108-3.57.431-.17 2.369-.69 2.748-.534 1.759.724 3.025-.321 4.417-1.047 6.111-3.19 11.871-6.918 17.358-11.088 2.742-2.084 5.668-3.886 8.86-5.223.738-.309 1.375-.555 1.211-1.691-.753-5.225-1.006-10.497-1.388-15.759-.672-9.253-.947-18.526-1.527-27.782-.911-14.519-1.906-29.029-3.584-43.49-1.651-14.227-4.342-28.269-7.071-42.308-2.122-10.921-3.559-21.921-4.108-33.037-.352-7.117-1.466-14.14-2.644-21.158-1.071-6.383-2.175-12.765-3.002-19.181-.613-4.761-.617-9.561.539-14.298.596-2.439.293-4.947.186-7.407-.534-12.221-1.022-24.452-2.428-36.612-1.046-9.051-2.344-18.072-3.516-27.109-.472-3.641-1.179-7.266-.973-10.963.048-.853-.313-1.368-.951-1.777-.334-.214-.69-.439-1.068-.531-7.605-1.864-14.18-5.959-20.893-9.72-16.066-9.001-33.174-14.871-51.36-17.801-12.166-1.96-24.386-3.312-36.656-4.32a863.948 863.948 0 0 1-14.809-1.318c-2.467-.245-4.203.564-5.664 2.662-2.646 3.801-5.561 7.414-8.349 11.116-.847 1.125-1.896 1.924-3.261 2.31-.809.229-1.691.346-2.266-.282-.784-.857-1.339-.444-2.051.016-14.415 9.328-27.948 19.785-39.883 32.15-14.279 14.794-28.896 29.227-43.952 43.228a162.355 162.355 0 0 0-16.901 18.326c-4.974 6.304-9.073 13.164-12.925 20.171-5.819 10.584-11.783 21.07-18.873 30.875-.881 1.218-1.893 2.169-3.383 2.489-.714.153-1.466.175-1.999-.46-.597-.711-.193-1.409.236-1.965 2.296-2.975 4.401-6.079 6.453-9.225 4.195-6.431 8.107-13.028 11.925-19.957-.785.037-1.053.554-1.389.905-8.581 8.943-18.164 16.535-29.054 22.564-10.556 5.845-20.927 12.035-30.686 19.18-2.338 1.712-4.471 3.643-6.184 5.976-1.716 2.337-1.631 3.028.165 5.229.353.432.705.874.99 1.351 1.588 2.653.951 4.513-1.992 5.58a18.566 18.566 0 0 1-3.714.93c-1.869.262-3.514.998-5.122 1.922-3.344 1.922-6.418 4.215-9.258 6.807-3.614 3.299-7.501 6.23-11.585 8.912-4.752 3.121-9.29 6.519-13.552 10.289-2.019 1.786-4.026 3.604-6.622 4.873 1.202 1.842 2.712 3.137 4.232 4.395 1.909 1.579 3.891 3.071 5.847 4.593 1.395 1.086 2.313 2.967 3.734 3.598 1.397.62 3.391-.119 5.144.037 7.783.69 15.233 2.735 22.55 5.38 5.948 2.15 11.585 5.006 17.354 7.562 1.085.481 1.792.685 2.619-.444.665-.908 1.893-1.135 2.929-1.552 1.993-.803 4.052-1.454 6.021-2.587-1.169-2.123-2.811-3.697-4.687-5.067-3.662-2.675-7.833-4.302-12.05-5.811-5.039-1.802-10.128-3.465-15.164-5.276-4.664-1.678-9.265-3.522-13.47-6.206-1.352-.863-2.641-1.791-3.542-3.176-.699-1.075-.919-2.15-.526-3.408.412-1.317.961-2.532 1.847-3.596a34.9 34.9 0 0 1 4.412-4.396c4.96-4.163 10.087-8.136 14.596-12.813.16-.166.347-.351.765-.211.529.747.013 1.342-.503 1.944-1.67 1.951-3.578 3.656-5.51 5.335-2.897 2.517-5.852 4.972-8.583 7.674-1.367 1.353-2.666 2.773-3.505 4.531-.951 1.994-.74 2.982.895 4.441 1.266 1.13 2.75 1.912 4.259 2.656 6.486 3.197 13.438 5.075 20.301 7.21 4.955 1.541 9.955 2.943 14.695 5.127 4.065 1.873 7.638 4.339 10.385 7.902.506.656.904.937 1.773.544 11.07-5.001 22.643-8.79 33.638-13.974 11.2-5.281 21.455-12.039 30.988-19.913 2.982-2.463 5.45-5.361 7.451-8.699 1.747-2.913 1.283-5.964.335-8.767-.534-1.58-.313-2.32.675-3.274.512-.495.97-1.046 1.347-1.458.126-.487-.096-.548-.326-.612-1.932-.54-2.157-1.052-.982-2.534 1.198-1.509 2.615-2.795 4.213-3.892 5.211-3.577 10.637-6.806 16.088-9.995 19.525-11.422 39.072-22.807 58.214-34.87 8.689-5.476 16.934-11.497 24.05-18.958.599-.628 1.33-1.152 1.716-2.005-.569-.525-1.036-.039-1.479.152-4.254 1.836-8.496 3.699-12.746 5.546-.952.413-1.901.855-2.984.784-.513-.034-.967-.229-1.178-.696-.227-.501.082-.928.402-1.292.647-.737 1.488-1.199 2.369-1.594 2.333-1.045 4.65-2.127 7.003-3.126 5.244-2.227 10.139-5.079 14.918-8.154 1.299-.835 2.356-1.873 3.292-3.1 3.345-4.388 6.703-8.769 10.7-12.606.984-.944 2.006-1.832 3.159-2.567.618-.394 1.283-.697 2.01-.714.724-.017 1.294.239.973 1.158-.74 2.117-1.561 4.175-3.105 5.887-1.885 2.091-3.939 4.001-6.244 5.588-2.177 1.499-3.575 3.581-5.118 5.811.786.276 1.327-.059 1.877-.247 8.092-2.768 16.243-5.328 24.625-7.085 3.992-.837 8.011-1.436 12.105-1.25.179-1.121-.474-1.806-.869-2.554-3.17-6.015-6.722-11.809-10.245-17.62-1.16-1.913-2.293-3.846-3.337-5.824-.911-1.726-.816-2.309.148-2.937 1.091-.71 1.917-.473 2.972.933 11.84 15.771 21.448 32.712 27.59 51.56 3.989 12.238 7.577 24.584 10.958 36.997.147.539.261 1.09.344 1.643.336 2.241-1.137 3.92-3.391 3.86-.869-.023-1.565-.39-1.872-1.242a33.187 33.187 0 0 1-.769-2.516c-3.805-13.949-7.486-27.936-12.504-41.52-.181-.491-.305-1.019-.976-1.615.781 3.617 1.511 6.956 2.221 10.299 4.952 23.291 9.881 46.588 14 70.044 1.838 10.466 3.857 20.906 5.135 31.464.702 5.797 1.159 11.611 1.311 17.45.169 6.468.265 12.946 1.668 19.31.137.621.171 1.268.225 1.905.158 1.875-.119 2.44-1.507 3.127-1.418.702-2.119.56-3.565-.692-.082-.071-.279-.009-.562-.009-.002.87.632 1.402 1.08 1.994 4.552 6.012 8.247 12.543 11.753 19.197 7.222 13.706 12.045 28.365 17.111 42.928.629 1.809 1.104 3.672 1.622 5.518.267.949.327 1.921-.33 2.745-1.156 1.45-3.157 1.116-4.012-.766-1.417-3.12-3.547-5.69-5.954-8.05-1.667-1.635-3.529-2.985-5.882-3.541-2.543-.601-3.669-.212-5.047 1.982-1.325 2.108-1.563 4.496-1.689 6.902-.021.394.1.794.097 1.19-.008 1-.445 1.694-1.493 1.854-1.085.165-2.179-.491-2.294-1.607-.695-6.754 3.982-15.3 12.788-12.817 1.689.476 3.17 1.389 5.121 2.447-.564-1.62-.974-2.787-1.376-3.957-3.045-8.858-6.964-17.343-10.997-25.781-3.625-7.585-7.791-14.863-12.32-21.936-.947-1.479-1.948-2.936-3.06-4.292-1.236-1.506-1.336-3.041-.431-4.662 1.098-1.965 2.292-3.886 4.488-4.82.681-.29 1.039-.595.911-1.406-.793-5.016-.188-10.06-.23-15.09-.087-10.427-1.356-20.731-3.016-30.997-2.959-18.303-6.243-36.55-9.979-54.709-3.525-17.139-6.638-34.363-10.545-51.424a100.117 100.117 0 0 0-2.213-8.089c-.356-1.116-.934-1.459-2.06-1.507-5.264-.225-10.341.897-15.389 2.116-8.395 2.028-16.601 4.681-24.674 7.75-.908.345-1.742.721-2.389 1.508-9.521 11.59-21.418 20.27-34.064 28.108-19.842 12.297-39.922 24.19-60.065 35.982-3.033 1.775-5.947 3.754-8.919 5.635-.764.484-1.402.904-.995 2.072.424 1.214-.195 2.353-.849 3.378a16.83 16.83 0 0 1-3.481 3.936c-1.839 1.522-2.258 2.95-1.426 5.26.611 1.698.467 3.261-.348 4.845-1.777 3.453-4.084 6.499-6.97 9.084-10.747 9.628-22.821 17.21-35.931 23.176-8.003 3.642-16.299 6.574-24.381 10.025-1.837.784-3.636 1.662-5.493 2.392-1.086.427-1.528.928-1.06 2.133.341.879.437 1.858.604 2.799.721 4.051-.853 6.743-4.804 7.788-1.402.371-2.265.931-3.009 2.223-1.033 1.792-2.636 3.204-4.157 4.623-3.85 3.593-7.4 7.546-12.128 10.094-1.53.825-2.288 2.132-2.202 3.943.08 1.676-.056 3.362.041 5.036.103 1.784-.462 3.251-1.537 4.649-3.121 4.055-6.177 8.16-9.258 12.246-.582.772-1.603 1.421-.261 2.498.539.432.167 1.211-.272 1.726-2.023 2.377-4.114 4.683-6.661 6.531-.628.456-1.254.569-2.009.508-8.025-.653-15.526-2.903-22.317-7.306a190.26 190.26 0 0 1-5.954-4.039c-1.993-1.403-2.273-2.373-1.571-4.721.204-.681.659-1.25.68-2.023.085-3.05-.458-4.013-3.418-4.841-5.953-1.666-11.143-4.701-16.042-8.388-3.254-2.45-6.652-4.713-10.036-6.984-7.821-5.25-14.166-11.922-19.231-19.831-1.292-2.017-2.786-3.908-3.82-6.09-1.341-2.83.512-5.512 3.696-5.341.807.043 1.308.582 1.81 1.074a286.604 286.604 0 0 1 5.591 5.6c5.701 5.906 12.073 10.94 19.207 15.016a50.768 50.768 0 0 1 11.174 8.606c3.117 3.185 7.063 5.19 10.98 7.191 1.423.727 2.84 1.454 4.234 2.241 2.985 1.684 3.196 4.507 3.096 7.404-.043 1.257-.434 2.518-.78 3.746-.395 1.403.067 2.326 1.083 3.361 4.772 4.86 10.365 8.498 16.447 11.454.144.07.284.153.435.202 1.043.341 1.864 1.577 3.01 1.216 1.471-.464 2.602-1.647 3.376-2.936a69.044 69.044 0 0 1 1.922-3.018c.178-.264.549-.626.478-.796-.889-2.135.83-2.27 2.063-2.873.461-.225.777-.785 1.109-1.229 2.392-3.203 4.755-6.428 7.162-9.62.952-1.262 1.487-2.591 1.378-4.214-.101-1.513.099-3.049-.045-4.555-.305-3.194 1.147-5.527 3.725-6.991 4.312-2.449 7.718-5.926 11.285-9.242 1.874-1.742 3.587-3.627 5.102-5.692-.339-.703-1.083-.628-1.654-.827-5.597-1.957-10.879-4.624-16.212-7.174-6.206-2.968-12.497-5.72-19.097-7.703-3.833-1.151-7.719-2.057-11.727-2.343-.38-.027-.774-.162-1.364.288 1.228 1.389 2.421 2.731 3.818 3.886 4.376 3.616 8.789 7.188 13.13 10.845 2.89 2.435 5.418 5.211 7.161 8.612 1.014 1.98.799 2.9-.81 3.818-1.74.993-3.447.752-4.336-.943-.572-1.091-1.925-1.881-1.528-3.487.089-.359-.53-.93-.881-1.355-1.582-1.921-3.45-3.559-5.298-5.207-2.387-2.128-4.846-4.176-7.276-6.256-2.616-2.239-5.128-4.588-7.339-7.232-.567-.678-1.036-1.156-1.988-.745-1.898.819-3.407.035-4.772-1.254-1.337-1.262-2.62-2.59-4.039-3.752-2.528-2.07-5.491-2.594-8.627-2.306-.115.484.136.602.321.701 5.236 2.782 9.005 7.061 12.292 11.875 2.929 4.291 5.834 8.607 9.349 12.463.268.294.511.615.742.94 1.084 1.52 1.096 2.089.072 2.839-1.256.921-2.557.753-3.545-.495-3.025-3.823-6.268-7.502-8.763-11.7-4.639-7.805-10.906-13.696-19.286-17.324-2.118-.917-4.075-2.202-6.118-3.294-2.636-1.408-5.405-1.431-8.13-.438-3.101 1.129-5.876 2.888-8.38 5.04-1.069.919-1.926 2.034-2.363 3.449-.81-.537-.384-1.009-.182-1.349.487-.821.953-1.715 1.642-2.347 4.086-3.75 8.675-6.525 14.366-7.015 1.894-.163 3.651.359 5.341 1.116 2.552 1.143 5.073 2.353 7.616 3.514.557.254 1.078.729 1.786.359 2.583-1.349 5.313-.687 8.001-.553.394.02.786.098 1.341.169-.493-1.113-1.418-1.652-2.119-2.368-.899-.916-1.77-1.848-2.502-2.903-2.144-3.086-1.681-6.626 1.317-8.927 2.799-2.149 5.841-4.036 9.144-5.202 7.394-2.611 13.382-7.395 19.402-12.111 3.897-3.052 7.476-6.499 11.637-9.239 2.676-1.762 5.439-3.258 8.615-3.847-.236-1.267-1.101-1.799-1.79-2.425-1.731-1.573-1.928-3.404-1.057-5.449.761-1.786 1.862-3.343 3.225-4.727 2.313-2.346 4.873-4.384 7.64-6.161 11.24-7.219 22.763-13.932 34.852-19.652 7.144-3.38 13.405-8.061 19.242-13.35 5.109-4.63 9.728-9.717 14.151-14.991a22.133 22.133 0 0 0 1.831-2.519c7.676-12.333 17.457-22.893 28.127-32.598 13.969-12.706 27.617-25.723 40.774-39.267 11.797-12.144 24.754-22.907 39.001-32.093 3.557-2.294 6.815-4.94 9.996-7.771 3.063-2.726 4.934-6.205 7.758-9.148-1.204-.767-2.267-.603-3.268-.692-1.595-.141-3.196-.26-4.688-.894-1.935-.822-2.253-2.1-.96-3.76.649-.833 1.5-1.447 2.407-1.957 4.105-2.305 8.541-3.907 13.207-3.882 4.286.023 8.413-.759 12.607-1.238 17.08-1.951 34.131-2.206 51.125.899 16.276 2.974 32.34 6.899 48.408 10.801 5.29 1.285 10.309 3.409 15.199 5.804.565.277.743.281 1.698.998s.106 3.817-1.303 3.123-4.664-2.31-6.98-3.358c-6.437-2.913-13.214-4.746-20.076-6.34-11.126-2.585-22.103-5.771-33.278-8.17-12.257-2.631-24.604-3.862-37.152-3.293-6.633.301-13.26.518-19.831 1.546-5.438.851-10.813 1.961-15.966 3.965-.428.167-.826.528-1.492.267.491-1.136 1.835-1.422 2.509-2.597-2.894.596-5.456 1.573-7.825 3.065a3.168 3.168 0 0 0-.388.281c-.422.365-.949.718-.849 1.351.105.665.741.787 1.277.884 1.022.184 2.052.371 3.085.429 2.213.124 4.399.368 6.525-.814 1.269-.706 2.806-.854 3.706.885.319.616.97.458 1.501.49a728.447 728.447 0 0 1 30.356 2.443c13.288 1.339 26.512 3.134 39.503 6.32 13.524 3.316 26.047 9.146 38.356 15.494a418.44 418.44 0 0 0 8.776 4.42c.999.486 2.062.968 3.145 1.131 2.599.392 4.716 1.88 6.993 2.951 2.321 1.091 3.513 3.418 4.799 5.54.736 1.215 1.424 2.461 2.385 4.129.798-1.749.824-3.144.875-4.513.158-4.271.957-8.41 2.463-12.41.537-1.426 1.196-2.774 2.211-3.95 1.322-1.533 4.862-10.656 5.2-11.806 1.34-4.55 2.148-9.174 2.254-13.921.045-1.997.06-4.004.278-5.985.144-1.311-.274-2.071-1.368-2.739-3.414-2.085-6.884-4.09-10.496-5.784-6.329-2.968-11.805-6.978-16.372-12.27-1.504-1.743-2.602-3.819-4.361-5.407-.825.47-1.366 1.195-2.207 1.504-1.28.469-2.407.509-3.585-.4-7.05-5.435-14.853-9.317-23.567-11.31-4.697-1.074-9.471-1.551-14.259-1.762-12.719-.56-25.333-1.939-37.85-4.279a61.54 61.54 0 0 0-11.693-1.025c-6.556.039-13.112-.039-19.668.291-2.297.116-3.751 1.071-4.78 2.959-1.044 1.917-2.028 3.816-.842 6.085 1.282 2.453 1.057 5.165.889 7.773-.16 2.481-.281 4.937.031 7.402.208 1.642-.32 2.824-1.959 3.37-.876.292-1.508.87-2.001 1.631-2.394 3.691-4.764 7.393-6.434 11.49-.83 2.037-.839 2.033 1.197 2.695-1.268 1.719-2.966 2.314-4.912 1.743-.941-.276-1.283-.932-1.106-1.827.138-.7.378-1.388.64-2.055 2.12-5.395 5.153-10.262 8.76-15.066-1.198-.553-1.642-1.575-1.31-2.845.297-1.134-.134-1.998-.787-2.866-1.352-1.796-2.342-3.806-3.341-5.812-.81-1.627-1.103-3.277-.79-5.104.425-2.485 1.427-4.731 2.525-6.954.289-.586.696-1.214 1.311-1.338 1.879-.38 3.468-1.647 5.437-1.715 1.009-.035 1.789-.542 2.562-1.163 1.041-.837 2.202-1.37 3.48-.4.581.441 1.219.244 1.847.223 8.232-.272 16.463-.531 24.7-.105 5.048.261 9.98 1.303 14.945 2.114 8.3 1.354 16.655 2.024 25.055 2.277 6.631.2 13.248.515 19.805 1.726 7.481 1.383 14.404 4.16 21 7.859.627.352 1.303.639 1.871 1.068 1.071.807 1.686.46 2.184-.646.782-1.735 1.84-3.185 3.904-3.54 1.745-.301 2.714.204 2.825 1.988.189 3.05 1.617 5.447 3.496 7.67 3.895 4.605 8.104 8.821 13.655 11.484 3.384 1.624 6.653 3.488 10.019 5.151 6.657 3.29 12.013 8.129 16.691 13.8.814.987 1.626 1.976 2.447 2.957.099.118.248.195.486.377.837-.262 1.285-1.042 1.778-1.719 1.929-2.651 3.821-5.326 5.318-8.259.287-.562.578-1.311 1.07-1.546 1.579-.752 1.937-2.216 2.458-3.62 2.338-6.304 4.073-12.784 5.748-19.287.363-1.409.009-2.283-1.078-3.071-2.352-1.706-4.953-2.906-7.672-3.884-8.22-2.957-16.736-4.782-25.256-6.581-5.785-1.221-11.587-2.364-17.457-3.114-2.148-.275-4.3-.456-6.452-.131-1.064.161-2.042-.015-3.102-.362.17-1.124.98-1.206 1.752-1.311 2.464-.336 4.946-.497 7.417-.252 15.081 1.496 29.809 4.731 44.292 9.127 2.964.9 5.764 2.251 8.697 3.574.75-1.748.84-3.515 1.2-5.208 1.646-7.743 2.965-15.544 3.876-23.408.987-8.522.759-17.087.82-25.64.006-.765-.258-1.38-.689-1.987-.863-1.213-1.201-2.621-1.241-4.075-.148-5.363-.014-10.714.907-16.017.122-.705.277-1.43.574-2.073.442-.955 1.29-1.427 2.345-1.319 1.028.105 1.14.979 1.285 1.772.519 2.847.53 5.726.577 8.606.027 1.61.075 1.656 1.59 1.445 17.016-2.369 34.056-4.61 50.767-8.743 5.05-1.249 9.94-3.001 14.732-5.016 1.771-.745 3.324-1.83 4.891-2.963 1.924-1.392 4.098-2.323 6.631-.955 2.347 1.268 4.961 1.672 7.643 1.746 9.942.276 19.805-.733 29.668-1.744 2.782-.285 5.557-.649 8.331-1.002 1.08-.138 5.466-.744 5.846-.822 1.877-.385 3.782-.678 5.491-1.627 1.959-1.087 3.061-2.625 3.082-4.993.016-1.824.342-3.653.633-5.463.204-1.267.82-1.523 2.032-.985.273.121.445.481.965.268.864-2.894 1.256-5.965 1.617-9.04.439-3.732.866-7.469 1.942-11.085.409-1.374.945-2.716 1.514-4.033.28-.648.69-1.279 1.173-1.794 1.136-1.213 2.521-2.08 4.248-1.71 1.733.371 2.282 1.878 2.662 3.381.571 2.256.816 4.568.842 6.889.046 4.07.013 8.142.013 12.372 1.004-.414.978-1.125 1.14-1.698 1.265-4.458 2.491-8.927 3.774-13.379.464-1.61.986-3.21 1.605-4.765.455-1.144 1.441-1.674 2.684-1.647 1.172.025 1.603.893 1.996 1.797 1.029 2.364 1.587 4.853 2.004 7.384.809 4.909.999 9.853.87 14.817-.027 1.05-.245 2.062-.572 3.053-.282.857-.742 1.617-1.508 2.106-.887.566-1.886 1.117-2.9.451-1.021-.67-.65-1.761-.329-2.627.716-1.931.655-3.93.719-5.92.142-4.402.026-8.794-.743-13.146-.078-.443.028-.991-.672-1.299-.47.619-.568 1.395-.764 2.118-1.27 4.705-2.522 9.415-3.79 14.12-.417 1.55-1.041 3.02-1.803 4.431-.425.788-.969 1.469-1.771 1.905-1.829.994-3.092.362-3.296-1.722-.476-4.866-.173-9.751-.29-14.626-.067-2.797-.052-5.598-.565-8.364-.204-1.098-.362-2.211-1.215-3.119-1.287.49-1.621 1.716-2.092 2.771-1.316 2.946-1.94 6.093-2.352 9.265-.648 4.994-1.153 10.007-2.597 14.86-.09.303-.176.63-.159.94.279 5.109-2.684 8.072-6.83 10.164-1.79.904-3.802 1.201-5.775 1.527-.722.119-5.943.887-6.369.931zm-214.86 489.404c-7.817 1.02-14.715 4.218-21.805 7.241 1.453 2.13 2.268 2.697 4.2 3.488.853.349 2.07-.518 2.536-.851 4.606-3.295 9.363-6.34 14.401-8.939.258-.133.608-.238.669-.938zM113.544 547.334c2.746 1.174 5.104 2.183 7.709 2.51.994.125 1.447-.32 1.576-1.286.173-1.299-.296-2.508-.423-3.763-.089-.879-.568-1.05-1.315-.727l-7.547 3.266z"/><path d="M353.99 110.951c-.55-.61-1.307-.903-1.992-1.305-3.771-2.211-7.248-4.705-8.646-9.343-3.433 1.665-6.866 2.679-10.371 3.46-1.402.312-2.801.657-4.249.708-.895.032-1.76-.059-2.541-.539-1.085-.667-1.41-1.679-1.279-2.886.133-1.225.958-1.76 2.04-2.054 1.146-.311 3.14-.549 3.313.299s-1.642.378-1.919 1.355 1.524 1.302 2.504.737c1.11-.64 2.254-.728 3.462-.723 4.115.016 7.171-1.662 9.185-5.371 2.134-3.929 3.815-8.065 5.947-11.984-2.547-1.323-4.64-.56-6.687.914-1.697 1.223-3.217 2.626-4.69 4.096-2.094 2.09-4.162 4.207-6.306 6.244-2.426 2.304-5.388 3.357-8.71 3.473-.812.028-1.608-.033-2.346-.37-.703-.321-1.135-.86-1.095-1.692.043-.907.687-1.312 1.385-.756 2.524 2.013 4.978.973 7.396-.143 1.239-.572 2.203-1.583 3.188-2.52a599.942 599.942 0 0 0 5.01-4.827c2.414-2.35 4.93-4.562 8.076-5.954-.097-.301-.12-.551-.243-.732-1.072-1.574-1.083-1.584-2.776-.816-3.389 1.535-6.858 2.529-10.662 2.242-4.346-.328-7.294-2.402-9.083-6.36-2.379-5.265-1.867-10.596-.575-15.966.223-.928.633-1.809.911-2.726.154-.509 1.248-6.37 1.372-8.212.147-2.188.865-4.303-.461-6.435-.397-.638-.098-1.716-.096-2.592 0-.368.272-.635.585-.635.325 0 .567.304.603.645.128 1.216.55 2.318 1.179 3.359.462.765 1.08 1.379 1.736 1.97.608.548 1.295.67 1.986.277.699-.397.521-1.088.377-1.714-.125-.545-.318-1.075-.428-1.622-.761-3.777-.402-7.476.904-11.077.402-1.107.942-2.192 2.533-2.714-.396 1.9-1.208 3.525-.845 5.283 1.836.387 2.806-.447 3.434-2.146.466-1.259 1.269-2.396 1.953-3.57.363-.623.8-1.205 1.475-1.535.489-.239 1.019-.648 1.522-.124.4.416.115.902-.11 1.321-1.068 1.989-1.749 4.101-2.166 6.32-.222 1.182.186 1.869 1.104 2.616 3.725 3.03 7.973 2.908 12.327 2.227a160.37 160.37 0 0 0 7.312-1.318c3.411-.697 6.841-.506 10.277-.376 1.55.058 2.978.613 4.403 1.095 2.651.897 5.316 1.717 8.035 2.385 1.786.439 3.54 1.073 5.093 2.062 1.253.798 2.216.597 3.17-.383.055-.057.127-.097.186-.152 6.749-6.249 14.669-10.724 22.607-15.235 6.091-3.461 12.32-4.072 18.95-2.395.46.117.93.199 1.348.287.182-.131.401-.205.416-.31.483-3.265 4.671-3.943 6.672-1.415.633.8 1.344 1.219 2.442 1.18 1.212-.043 2.303.576 3.383 1.106 1.353.664 8.116 5.426 9.641 6.822.721.661 1.295.576 2.087.022 5.648-3.957 11.988-5.908 18.831-6.361 2.41-.16 4.787.188 7.174.393.288.025.655.068.729.777-2.699-.257-5.328.166-7.97.455-5.286.578-10.39 1.783-15.14 4.243-.919.476-1.782 1.061-2.663 1.608-.28.174-.499.446-.376.779.117.317.456.477.775.482.557.01 1.129.01 1.67-.103 11.224-2.34 20.036 2.013 27.407 10.047 3.079 3.356 5.697 7.113 8.102 10.992 2.45 3.952 2.879 8.246 1.867 12.705-.514 2.264-1.36 4.428-2.409 6.505-1.083 2.145-2.02 4.342-2.589 6.69-.881 3.633-.116 6.815 2.515 9.498 1.287 1.313 2.646 2.556 3.922 3.879 2.408 2.499 4.412 5.267 5.52 8.607.991 2.991.756 5.769-1.488 8.533.75-6.338-1.334-11.395-5.443-15.714a67.598 67.598 0 0 0-2.903-2.864c-1.942-1.807-3.621-3.819-5.002-6.385-1.115 1.684-2.087 3.221-3.133 4.705-.559.793-.229 1.308.331 1.855 1.265 1.236 2.739 2.203 4.149 3.252 1.475 1.097 3.003 2.128 4.434 3.28 4.291 3.453 5.212 8.755 1.502 13.32-.939 1.155-1.918 2.278-2.964 3.517 1.682 0 3.164.023 4.645-.005 3.198-.059 6.396-.117 9.592-.227 2.915-.1 5.693.767 8.538 1.151 5.464.738 10.912 1.54 16.454 1.468 2.713-.035 5.429.156 8.102.751a8.934 8.934 0 0 0 2.376.183c2.209-.116 4.323.012 6.041 1.657.471.451.949.454 1.484.032 4.057-3.201 9.04-3.399 13.824-4.142 3.645-.566 6.931.695 10.014 2.565.671.407 1.255.985 2.03 1.127.424-.098.505-.42.58-.726.571-2.329 2.088-3.44 4.445-3.652 10.127-.912 20.023-3.256 30.037-4.866 6.332-1.018 12.708-1.318 19.111-.788 1.609.133 3.145.57 4.643 1.123.652.241 1.493.575 1.252 1.486-.233.881-1.083 1.16-1.914 1.133-.539-.018-1.082-.251-1.602-.446-2.575-.964-5.234-1.328-7.98-1.411-7.817-.238-15.449 1.081-23.063 2.577-6.588 1.294-13.2 2.428-19.876 3.175-1.864.209-1.866.232-2.226 2.134-.119.628-.197 1.263-.304 1.893-.393 2.308-2.09 3.034-3.947 1.674-.967-.708-1.893-1.472-2.855-2.187-3.711-2.755-7.769-3.544-12.242-2.239-1.91.557-3.916.779-5.617 1.959-1.009.7-1.79 1.462-2.226 2.693-1.02 2.885-3.511 3.339-5.719 1.158-1.72-1.699-3.094-3.956-5.998-3.778-4.292-2.064-8.76-1.129-13.163-.664-6.548.693-12.924.194-19.081-2.233-1.364-.538-2.734-.851-4.195-.842-3.598.023-7.197.005-10.795.045-2.001.022-3.977.235-5.931.758-1.046.28-2.147.718-3.275.205a.724.724 0 0 0-.471-.043c-3.948 1.239-8.191.294-12.124 1.636-.302.103-.605.223-.917.278-1.207.21-1.663.963-1.878 2.133-.768 4.179-2.128 8.189-3.695 12.131-.506 1.272-1.112 2.492-2.106 3.455-.494.479-1.074 1.234-1.787.89-.773-.373-.481-1.253-.27-1.936.33-1.067.689-2.125 1.068-3.176 1.544-4.288 3.015-8.589 3.634-13.139.176-1.297.11-2.549-.063-3.814-.242-1.77-.375-1.877-2.101-1.836-.799.019-1.599.148-2.394.116-1.596-.063-2.024-.564-1.759-2.109.148-.86.455-1.695.709-2.535.185-.611.481-1.2.585-1.823.22-1.323.659-2.789-.679-3.761-1.373-.997-2.825-.989-4.513-.396-4.288 1.507-8.318 3.676-12.718 4.874-.704.192-1.448.812-2.015-.285-.147-.284-.592-.097-.895-.029-1.654.366-3.339.26-5.39.334 1.1 1.545 2.042 2.931 3.052 4.267.83 1.098.726 1.291-.39 2.062-1.46 1.008-3.042 1.176-4.737 1.305-6.51.495-12.792 1.89-18.57 5.093-1.475.817-2.87 1.747-4.125 2.87-.704.63-1.484 1.231-1.644 2.338 1.11.359 2.055-.204 2.973-.564 7.458-2.92 15.208-4.25 23.189-4.427 1.704-.038 3.365.082 4.911.834 1.78.866 1.883 2.088.275 3.241-1.188.853-2.581 1.243-3.98 1.597-4.567 1.156-9.234 1.913-13.714 3.407-1.273.425-2.627.682-3.911 1.58 3.772 2.099 3.702 5.799 3.844 9.253.262 6.391.105 12.787-.448 19.17-.772 8.918-1.431 17.846-2.217 26.762-.344 3.898-.881 7.779-1.339 11.667-.056.474-.099.966-.263 1.407-.235.63-.685 1.108-1.429 1.063-.913-.056-.901-.803-.89-1.42.067-3.837.092-7.677.275-11.509.351-7.346.75-14.691 1.219-22.03.373-5.825.819-11.642.662-17.487-.033-1.236.031-2.389-1.526-2.841-.618-.18-.838-.921-1.026-1.545l-.792-2.614c-5.159 17.196-8.499 49.447-9.137 48.175-.964 5.523-1.538 10.699 1.549 15.555.649 1.021 1.095 1.676 2.591 1.205 2.155-.678 2.827-.065 3.27 2.185 1.678 8.529 4.751 16.566 8.59 24.332.283.573.591 1.136.929 1.678.291.468.641.899.965 1.346-1.505.901-2.463.849-3.997-.378-1.647-1.318-2.881-3.005-3.829-4.868-1.123-2.206-2.181-4.448-3.031-6.781-1.504-4.133-2.881-8.304-3.797-12.611-.147-.689-.311-1.135-1.099-1.312-1.064-.238-1.813-1.033-2.364-1.923-1.703-2.749-2.902-5.642-2.954-8.982-.071-4.541.928-8.882 2.092-13.21.08-.297.174-.731.387-.829 1.047-.481.872-1.38.882-2.235.164-14.102 2.713-27.802 6.941-41.22.24-.762.479-1.53.802-2.258.748-1.683.842-3.387.287-5.277-1.294.074-2.125.891-2.863 1.808-.454.564-.858 1.139-1.563 1.436-1.288.542-2.006.253-2.023-1.165-.013-1.086-.663-1.157-1.312-1.331-3.162-.848-6.389-1.418-9.532-2.363-5.217-1.568-10.291-3.497-15.162-5.919-5.951-2.959-11.162-6.881-14.988-12.409-1.441-2.083-3.244-3.357-5.757-3.905-2.314-.505-4.54-1.416-6.805-2.148l.052.046zm-6.996-9.818a17.098 17.098 0 0 0 2.684 2.728c4.186 3.388 9.022 5.453 14.179 6.727 2.664.658 4.575 2.058 6.118 4.247 4.78 6.78 11.156 11.53 18.74 14.821 6.625 2.875 13.532 4.759 20.532 6.39.566.132.91-.15 1.304-.39 3.794-2.302 7.955-3.681 12.187-4.903 4.612-1.332 9.368-2.015 14.01-3.2 1.074-.274 2.917-.27 2.727-1.703-.196-1.477-1.999-1.248-3.244-1.282-2.968-.083-5.896.309-8.817.805-5.529.939-10.938 2.293-16.136 4.436-1.115.46-2.285.756-3.51.563-1.123-.177-1.499-.79-1.117-1.872s1.135-1.913 1.975-2.673c2.579-2.331 5.542-4.052 8.708-5.433 4.575-1.995 9.416-3.031 14.313-3.823.726-.117 1.378-.336 2.037-.623.726-.316.755-.761.288-1.29a152.41 152.41 0 0 0-3.216-3.554c-1.54-1.635-3.147-3.268-3.918-5.399-1.182-3.267-4.202-3.93-6.871-4.906-.988-.361-2.097-.523-3.073-1.063-3.189-1.764-6.578-2.707-10.243-3.029-7.326-.644-14.519.342-21.719 1.352-3.653.512-7.137 1.708-10.621 2.884-1.054.356-2.102.791-3.246.791-.315 0-.688-.044-.81-.363-.174-.454.165-.74.51-.955a2.39 2.39 0 0 1 .658-.273c5.4-1.413 10.647-3.355 16.254-4.04 7.395-.904 14.765-1.703 22.214-.779.485.06 1.087.376 1.599-.339-2.568-5.091-5.131-10.232-8.641-14.817-1.602-2.093-3.385-4.046-5.022-6.113-1.64-2.071-4.587-2.641-5.835-5.153-.089-.179-.389-.268-.605-.367-1.922-.875-3.922-.633-5.886-.281-1.459.261-2.719.957-3.248 2.51-.025.074-.079.139-.125.204-.307.439-.76.695-1.225.432-.492-.279-.349-.841-.225-1.3.196-.726.764-1.196 1.247-1.728.845-.931.688-1.431-.509-1.74-1.379-.357-2.249-.076-3.087 1.158-.671.989-1.26 2.04-1.832 3.091-4.002 7.351-10.422 11.732-18.055 14.527-1.993.73-4.165 1.327-6.303.303-.846-.405-1.13.041-1.414.697-1.552 3.58-2.955 7.23-5.052 10.654-.766 1.251.828 3.444 1.323 4.073zM434.6 64.724c-.381.414-.509.646-.705.752-6.519 3.533-13.247 5.055-20.419 2.051-.601-.252-1.156-.619-1.768-.11-1.414 1.175-3.079 1.128-4.773 1.057-1.458-.061-2.889.148-4.124.99-3.091 1.764-1.388 3.786-.887 4.36 2.997 3.439 5.828 7.003 8.042 11.011 1.737 3.145 3.425 6.318 5.132 9.48.499.924 1.053 1.679 2.152 2.093 3.896 1.467 7.448 3.643 11.097 5.616.757.409 1.219.924 1.5 1.736.639 1.848 1.859 3.336 3.161 4.756.322.351.63.688 1.212.596 4.325-.683 8.703-1.072 12.861-2.619 1.171-.436 2.113-1.044 2.917-1.979 2.037-2.368 3.848-4.902 5.569-7.5 1.908-2.881 2.547-6.106 2.534-9.522-.011-2.851-.041-5.625.926-8.483 1.078-3.186 2.069-6.537 1.686-10.072-.353-3.255-.506-6.531-1-9.773-.501-3.288-1.856-6.22-3.688-9.077-.728.954-.743 2.04-1.118 2.988-.351.887-.52 2.076-1.338 2.476-1.558.764-2.467 2.2-3.813 3.158-1.375.978-2.748 1.931-4.386 2.405-.929.269-1.972.541-2.776-.071-.792-.604-1.423-.467-2.174-.113-5.505 2.598-11.259 2.702-17.122 1.698-.545-.093-1.097-.45-1.635-.208-2.15.964-4.335 1.871-6.543 3.381 6.774 3.01 12.908.365 19.48-1.077zm50.396 30.555c-2.172 3.27-2.069 5.831.28 8.556.988 1.146 2.074 2.213 2.842 3.536 1.714 2.954 1.846 5.866-.193 8.746-.354.499-.939.894-.898 1.622 3.022.02 3.564-.182 5.558-2.089.982-.939 1.879-1.953 2.631-3.089 2.461-3.717 2.099-7.615-1.295-10.496-2.843-2.413-5.936-4.532-8.924-6.785zm3.604-27.816c.316.032.411-.061.478-.236 1.758-4.587 1.551-9.221.274-13.86-.186-.674-.596-1.306-.988-1.901-2.518-3.821-5.441-7.304-8.986-10.21-3.64-2.984-7.65-5.221-12.503-5.425-.639-.027-1.715-.404-1.813.535-.087.828 1.002.763 1.645.956.15.045.321.066.474.042 1.629-.25 2.965.471 4.237 1.319 4.271 2.849 8.215 6.083 11.423 10.126 2.987 3.765 4.997 7.968 5.409 12.823.165 1.947.238 3.902.351 5.83zm-3.519 22.623c.437-.473.684-.676.852-.931 1.799-2.73 3.554-5.419 3.722-8.905.115-2.398 1.424-4.545 2.334-6.755.953-2.315.59-4.574.008-7.298-5.688 11.781-7.665 18.533-6.915 23.889zm-117.586-50.77c-2.356-.264-4.478-.436-6.65-.187-3.5.402-6.921 1.224-10.393 1.769-4.394.69-8.618.654-12.277-2.389-.158-.132-.42-.241-.696.223.117 1.986 1.38 3.276 3.307 3.673 1.934.398 3.885.77 5.838 1.089 1.337.218 2.714.199 4.047.434 1.733.306 3.203.172 4.665-1.065 2.816-2.383 6.133-3.34 9.841-2.719.788.132 1.606.204 2.318-.828zm-26.622 14.008c-1.206-.878-2.417-1.533-3.321-2.479-1.03-1.078-2.331-1.674-3.605-1.63-1.489.051-2.778-.394-4.146-.702-1.422-.321-2.688.322-3.292 1.678-.229.514 1.852 2.653 2.35 2.871 1.609.705 3.223 1.389 4.976 1.701 2.47.441 4.717-.075 7.038-1.438zM435.6 32.75c-2.385-2.022-4.93-3.645-8.306-3.367-2.936.242-5.882.356-8.823.575-7.473.557-13.1 4.55-18.353 9.359-.215.197-.357.474-.674.907.987-.117 1.448-.708 1.992-1.092a42.418 42.418 0 0 1 11.27-5.678c1.051-.346 2.406-.281 2.687-1.851.064-.361.619-.44 1.023-.491 3.726-.468 7.442-.861 11.156.162 2.604.718 5.244 1.298 8.028 1.476zm11.091 16.145c-.599 1.835-1.556 3.362-2.703 4.908 1.862.515 3.144-1.235 4.325-.558s-1.624 4.082-3.123 5.585c3.64-1.771 6.319-4.355 7.449-8.723-2.328.779-4.012-.518-5.948-1.211zM326.705 61.008c-1.041 2.895-.652 4.535 1.407 5.983 2.294 1.613 4.966 2.058 7.673 2.283.793.066 1.535-.327 2.272-1.182-4.601-1.13-8.518-3.22-11.352-7.085zm105.877-5.527c2.783.071 5.136.602 7.239-1.155 1.764-1.475 3.396-2.965 4.065-5.382-3.571.262-5.387 1.314-11.304 6.537zm13.583-.129c-3.404 1.482-6.875 1.992-10.123 3.25-3.267 1.265-6.925.524-10.314 1.9.817.791 1.666.677 2.43.722 1.911.113 3.832.226 5.735-.108 1.97-.346 3.943-.789 5.729-1.668 1.633-.804 3.389-1.32 4.962-2.236.609-.355 1.286-.678 1.581-1.859zm-15.241-29.185c-4.506-.527-9.073-1.368-13.212 1.326 4.387-.558 8.804-.82 13.212-1.326zm11.509.371c.773 2.058.849 4.382 2.663 5.976q1.649-3.729-1.584-5.511c-.342-.188-.718-.311-1.079-.465zM323.265 59.052a23.372 23.372 0 0 0-.997 6.224c2.28-1.435 2.062-3.98 3.488-5.733l-2.49-.492zm126.018-24.075c.122-1.423-.096-2.659-.519-3.87-.138-.395-.397-.75-.787-.819-.474-.085-.656.36-.803.727-.267.663-.548 1.325-.749 2.009-.275.935.15 1.562 1.044 1.821.518.15 1.059.344 1.814.133zm-116.199 8.398c-.039-2.187.007-4.321.387-6.438.087-.486.456-1.217-.254-1.446-.727-.235-.83.546-1.013 1.027-.667 1.757-.846 3.533-.168 5.344.246.656.209.67 1.047 1.513zM492.621 59c-.082 2.693-.78 5.475 1.303 8.396-.106-3.206.31-5.947-1.303-8.396zM438.18 25.56c-.126-.686-.617-1.1-1.079-1.513-.465-.415-.982-.915-1.651-.435-.583.418-.548 1.105-.47 1.729.084.671 1.446 1.705 2.1 1.59.741-.13.841-.835 1.101-1.372zM331.304 71.235c-2.18-.789-4.252-1.773-6.49-3.398 1.696 3.02 4.191 4.301 6.49 3.398zm-6.425 1.336c-.748-.679-1.275-1.549-2.269-2.031.086 2.862.207 2.969 2.269 2.031z"/><path d="M310.75 153.839c.79.368 1.534.868 2.229 1.4 1.185.908 1.168 1.744.021 2.719-.761.647-1.681.968-2.645 1.013-.931.043-1.231.43-1.239 1.324-.069 8.576.163 17.115 2.845 25.381.592 1.825 1.232 3.621 2.359 5.218.635.9 1.229 1.252 2.374.831 6.409-2.354 13.059-3.727 19.829-4.439 10.505-1.104 21.033-1.789 31.587-.69a53.527 53.527 0 0 1 9.858 1.969c.587.176 1.375.32 1.236 1.178-.117.724-.807.937-1.448 1.064-.56.111-1.093-.025-1.642-.193-7.04-2.163-14.285-2.661-21.583-2.421-6.309.208-12.623.394-18.901 1.205-6.758.873-13.52 1.951-19.756 4.683-4.252 1.863-5.795 2.651-7.473 7.028-3.439 8.97-6.151 18.157-8.875 27.348-.931 3.14-1.833 6.289-2.736 9.438-.499 1.74-.078 3.646-1.061 5.323-.416.709-.745 1.41-1.542 1.73-1.153.462-1.888-.099-1.664-1.349.254-1.414.552-2.829.963-4.203 4.075-13.621 7.667-27.397 13.042-40.601.305-.75 2.143-4.366 3.109-4.747.691-.273.946-.691.518-1.487-3.383-6.291-4.375-13.125-4.474-20.15-.062-4.401.119-8.796.542-13.174.14-1.453-.207-2.308-1.598-2.997-7.47-3.701-13.93-9.045-21.166-13.138-7.044-3.985-13.287-9.161-20.059-13.554-4.693-3.045-9.511-5.903-13.991-9.268-1.533-1.152-3.007-2.382-4.539-3.535-2.735-2.058-4.083-4.85-4.396-8.19a61.915 61.915 0 0 1-.221-3.829c-.079-2.523-.086-2.581-2.54-2.662-2.658-.088-5.235-.56-7.762-1.372-1.327-.426-2.542-1.072-3.393-2.161-5.565-7.118-12.873-12.418-19.321-18.614-3.458-3.323-7.086-6.476-10.178-10.166-1.131-1.349-2.201-2.73-2.972-4.337-1.086-2.264-2.879-3.687-5.439-3.713-3.377-.034-5.505-1.714-6.91-4.633-.975-2.026-2.68-3.132-4.88-3.456-1.422-.209-2.863-.297-4.28-.531-1.943-.321-2.398-1.192-1.75-3.05.326-.933 1-1.626 1.533-2.417.208-.308.186-.594-.116-.83-.272-.212-.556-.313-.826.002-1.189 1.39-2.67 1.022-4.209.828-5.035-.635-10.077-.382-15.045.516a105.265 105.265 0 0 1-20.509 1.655c-6.921-.112-13.45-1.596-19.71-4.475-2.943-1.353-5.166-3.449-6.718-6.265-2.833-5.14-3.59-10.507-1.861-16.196.483-1.59 1.387-2.577 2.856-3.292 2.282-1.109 4.746-1.407 7.182-1.786 2.444-.38 4.922-.722 7.388-.75 8.154-.093 16.313-.266 24.462.186 1.59.088 3.165.436 4.747.658.768.108 1.531.44 2.524.004-.795-1.29-1.938-2.12-3.115-2.886-1.544-1.005-3.046-2.061-4.454-3.248-1.169-.985-2.219-2.089-2.967-3.429-1.031-1.844-1.469-3.767-.106-5.631 1.479-2.024 3.424-3.185 6.011-2.451 4.684 1.328 9.476 2.29 14.02 4.098 4.625 1.84 9.005 4.052 12.853 7.317 2.552 2.165 5.419 3.958 8.144 5.919.584.42 1.177.83 1.739 1.278.599.478 1.56.888 1.023 1.866-.463.842-1.401.99-2.325.904-.67-.062-1.18-.476-1.689-.856-3.903-2.922-7.989-5.585-11.794-8.652-4.492-3.62-9.884-5.505-15.292-7.25-2.581-.832-5.236-1.439-7.864-2.121-1.793-.465-2.79.372-2.615 2.193.11 1.148.667 2.115 1.35 3.025 1.469 1.956 3.453 3.312 5.433 4.664 1.124.768 2.265 1.507 3.234 2.469.451.448.919.904 1.258 1.435 1.391 2.178.731 3.497-1.835 3.653-1.761.108-3.515-.038-5.254-.352-2.047-.37-4.104-.7-6.187-.707-7.596-.028-15.194-.09-22.789 0-3.439.041-6.826.755-10.193 1.451-1.623.335-2.569 1.227-2.999 2.956-1.334 5.358-.437 10.302 2.398 14.95 1.282 2.102 3.077 3.606 5.353 4.624 6.073 2.715 12.401 3.97 19.06 4.149 7.25.195 14.33-.907 21.455-1.9 5.687-.792 11.419-1.32 17.113-.093 2.035-9.484 7.732-16.404 14.963-22.278 1.05-.853 2.201-1.624 3.659-1.613.4.003.842.039 1.04.442.257.522-.056.915-.442 1.233-.245.202-.529.357-.787.544-5.912 4.289-10.184 9.867-12.987 16.585-.424 1.015-.869 2.052-.777 3.36 1.21-.106 1.841-.986 2.576-1.603 4.839-4.061 9.659-8.147 14.874-11.729 2.899-1.992 5.831-3.94 9.106-5.287.738-.304 1.476-.613 2.296-.64 1.581-.052 2.232.706 1.796 2.244-.193.68-.569 1.318-.92 1.942-1.927 3.419-4.279 6.56-6.469 9.806-2.28 3.379-4.651 6.7-6.692 10.234-.419.725-.969 1.42-1.074 2.386.796-.212 1.068-.823 1.456-1.28 4.976-5.857 10.514-11.186 15.743-16.804 1.822-1.958 4.284-2.739 6.512-3.945.907-.491 1.909-.173 2.523.757.484.732.918 1.501 1.315 2.284 1.055 2.08 2.758 3.273 5.007 3.718 1.489.295 2.985.55 4.482.799 1.95.325 3.63 1.087 4.986 2.608 1.566 1.756 3.51 2.916 5.77 3.717 3.102 1.098 5.673 3.239 8.483 4.906 3.503 2.078 6.901 4.334 10.536 6.193 5.062 2.588 9.815 5.693 14.58 8.775 2.161 1.398 4.148 3.03 5.605 5.17.467.686.872.767 1.557.624 3.959-.829 7.731-.417 11.407 1.402 4.438 2.196 8.966 4.209 13.462 6.289 5.834 2.698 10.437 7.047 15.127 11.275 1.662 1.499 3.272 3.057 4.878 4.616.679.659 1.535 1.344.6 2.415-.733.84-2.157 1.066-3.046.396-.63-.475-1.149-1.106-1.684-1.697-2.842-3.144-5.704-6.262-8.834-9.133-2.976-2.729-6.298-4.932-9.911-6.672-4.461-2.15-8.998-4.141-13.488-6.232-2.912-1.356-5.815-1.544-8.805-.24a15.387 15.387 0 0 1-3.196.998c-1.756.34-2.44-.372-1.891-2.074.35-1.086.093-1.841-.568-2.623-.991-1.171-2.147-2.149-3.427-2.979-4.962-3.218-9.943-6.399-15.218-9.106-2.698-1.385-5.303-2.963-7.884-4.561-3.299-2.043-6.823-3.517-10.604-4.298-3.186-.658-5.844-2.163-7.961-4.568-1.454-1.652-3.232-2.551-5.34-2.938-.392-.072-.771-.212-1.163-.291-3.407-.687-5.775-2.616-6.999-5.884-.666-1.778-.669-1.442-2.223-.834-1.376.538-2.376 1.585-3.385 2.62-5.479 5.621-10.256 11.845-15.348 17.799a77.983 77.983 0 0 1-3.57 3.882c-.849.866-1.863 1.515-3.108 1.688-1.677.233-2.475-.532-2.121-2.176.492-2.285 1.503-4.372 2.677-6.386 2.904-4.98 6.309-9.627 9.539-14.39 1.385-2.042 2.877-4.018 4.12-6.358-1.199-.304-1.885.485-2.604.935-5.026 3.147-9.648 6.842-14.214 10.609-1.912 1.578-3.797 3.188-5.708 4.767-1.236 1.021-2.523 1.968-4.05 2.525-.225.082-.484.123-.667.262-.897.68-1.33 1.711-1.253 2.722.086 1.128 1.266.628 1.955.799.846.211 1.751.172 2.614.329 2.635.48 4.838 1.611 6.086 4.151.281.571.665 1.091.985 1.644.735 1.272 1.782 2.032 3.297 1.999 3.112-.069 5.105 1.604 6.4 4.225 2.066 4.179 5.327 7.345 8.652 10.476a267.775 267.775 0 0 0 16.677 14.445c2.699 2.151 5.254 4.47 7.386 7.173 1.819 2.307 4.175 3.394 6.949 3.787 1.66.235 3.336.363 5.008.504.797.067 1.588.096 2.355.38 1.415.524 2.289 1.406 2.226 3.019-.053 1.358.038 2.729-.116 4.073-.38 3.318.751 5.893 3.36 7.981 3.938 3.153 8.012 6.11 12.327 8.713 5.613 3.386 11.205 6.804 16.643 10.465 5.847 3.936 12.188 7.007 18.278 10.517 3.322 1.915 6.389 4.252 9.863 5.909.637.304 4.958 2.59 6.064 3.105zm188.021 510.493c-1.651 3.398-3.96 5.696-6.579 7.707-3.245 2.492-6.815 4.463-10.441 6.334a134.054 134.054 0 0 1-13.556 6.067c-2.465.944-4.824 2.111-7.248 3.138-1.412.598-2.633.688-4.275.019-2.25-.917-4.63-1.951-7.317-1.5-2.032.341-3.011.867-3.427 2.953-.296 1.487-.469 3-.647 4.508-.15 1.271-.759 2.055-1.838 2.854-2.598 1.924-5.279 3.631-8.411 4.446-4.824 1.256-9.67 1.017-14.456-.255-2.931-.779-5.825-1.705-8.622-2.899-2.138-.913-4.374-1.499-6.621-2.066-1.947-.491-3.798-1.242-5.498-2.322-.603-.383-1.195-.809-1.715-1.297-3.468-3.256-2.24-6.129 1.373-8.175 1.937-1.097 4.09-1.796 6.052-2.887 1.608-.894 3.221-1.763 4.687-2.889.825-.634 1.724-1.191 2.776-1.356.644-.101 1.497-.056 1.474.763-.034 1.224.856 1.469 1.594 1.801 2.256 1.015 4.513 2.057 6.848 2.863a60.239 60.239 0 0 1 12.71 6.115c1.348.857 2.736 1.652 4.117 2.458 1.789 1.044 1.794 1.036 2.227-.96.828-3.815 3.479-6.073 7.424-6.227 1.906-.074 3.817-.013 6.18-.013-.83-.834-1.476-.663-2.034-.696-8.441-.506-16.614-2.233-24.467-5.39-2.079-.836-4.107-1.802-5.813-3.298-1.574-1.38-1.373-2.441.602-3.042 3.21-.976 6.386-2.044 9.486-3.326.707-.292 1.329-.312 2.071-.093 4.748 1.4 9.509 2.756 14.271 4.106 3.249.921 6.527 1.57 9.923.888.948-.19 1.867-.47 2.679-.999 1.505-.978 1.575-2.153.132-3.241-.626-.472-1.388-.786-2.122-1.087-3.926-1.612-8.053-2.582-12.116-3.755-1.223-.353-2.45-.694-4.011-1.136 2.139-1.703 4.417-2.597 6.474-3.84.651-.393 1.052.185 1.402.576 1.848 2.065 4.247 3.368 6.552 4.801 1.873 1.164 3.957 1.693 6.13 1.873.609.05 1.392.173 1.723-.517.367-.763-.17-1.353-.674-1.885-1.054-1.113-2.292-1.987-3.607-2.76-2.275-1.338-4.397-2.873-6.156-4.637-.151-.612.216-.743.461-.886 7.28-4.231 14.997-7.477 22.995-10.06 3.164-1.022 6.46-.98 9.745-.87.891.03 1.74.263 2.558.592 1.121.45 2.261.692 3.478.791 3.249.267 5.64 2.555 6.064 5.794.186 1.419.175 2.873.148 4.308-.03 1.545-.2 1.665-1.696 1.454-1.818-.257-3.638-.518-5.443-.856-4.203-.788-8.448-.425-12.676-.516a79.36 79.36 0 0 0-5.277.045c-1.201.054-1.59.706-1.04 1.739.564 1.059 1.27 1.963 2.602 2.281 3.032.725 6.067 1.395 9.166 1.774 3.885.476 7.592 1.686 11.66 2.687zm153.846-551.86c2.569-.876 4.987-1.344 7.424-1.63 3.57-.419 7.161-.66 10.736-1.039 1.467-.156 2.563.218 2.96 1.726.28 1.065.765 1.134 1.739.805 4.185-1.416 8.511-2.148 12.915-2.418 1.353-.083 2.71-.177 4.053.179 2.225.588 3.564 2.034 3.761 4.122.176 1.867-.722 3.186-2.91 4.193-1.087.5-2.213.918-3.301 1.416-.503.23-.997.518-1.422.868-.42.345-.903.794-.596 1.411.247.495.827.383 1.297.405 2.085.099 4.16-.078 6.211-.397 8.136-1.266 16.082-.308 23.924 1.948 2.861.823 3.115 1.13 3.366 4.108.058.686.127 1.173.892 1.468 1.297.501 1.673 1.609 1.585 2.925-.027.398-.048.804-.002 1.198.552 4.735-2.087 7.513-5.936 9.405-3.742 1.84-7.794 2.863-11.802 3.929-7.455 1.982-15.052 2.89-22.779 2.577-2.164-.088-4.344-.117-6.262-1.286-.742-.452-1.152.013-1.713.283-2.047.986-2.768.536-2.874-1.677-.408-8.538-1.057-17.059-1.798-25.575-.236-2.706-.405-5.417-.625-8.124-.2-2.459-.39-2.719-2.709-2.454-4.678.536-9.411.622-14.024 1.7-.607.142-1.241.265-2.111-.067zm25.158 33.744c1.399-.461 2.594-.038 3.821.257.845.203 1.733.274 2.606.305 7.139.253 14.2-.358 21.159-2 3.886-.917 7.755-1.957 11.438-3.484 4.372-1.813 4.498-3.62 4.422-7.76-.01-.517-.156-.99-.699-1.118-1.37-.322-1.128-1.033-.837-2.14.721-2.743.04-3.708-2.735-4.483-7.227-2.018-14.539-2.912-22.016-1.681-2.45.403-4.922.532-7.402.401-2.643-.14-3.329-1.49-1.93-3.77.599-.976 1.44-1.71 2.413-2.285.892-.528 1.814-1.006 2.727-1.499.623-.337 1.354-.552 1.29-1.502-.07-1.039-.467-1.881-1.447-2.289-.501-.208-1.088-.291-1.636-.295-4.335-.028-8.579.658-12.798 1.607-1.266.285-1.487.911-1.285 2.043.717 4.012 1.027 8.074 1.403 12.128.536 5.789 1.275 11.559 1.508 17.565zm-323.838-35.311c-.809.863-.477 1.767-.058 2.644.834 1.743 1.971 3.285 3.235 4.736 4.206 4.832 9.273 8.535 14.998 11.354 7.455 3.672 15.173 6.746 22.844 9.924 3.835 1.589 7.67 3.176 11.5 4.777.588.246 1.166.53 1.711.858.66.397 1.649.619 1.589 1.589-.068 1.109-1.042 1.498-1.947 1.87-1.526.626-3 .202-4.449-.247-3.385-1.047-6.863-1.476-10.383-1.641-5.413-.253-10.631 1.004-15.861 2.121-1.145.245-2.339.386-3.86 1.252 5.373 1.425 10.458 2.105 15.526 2.835 5.101.735 10.089 1.964 15.174 3.01-.299 1.049-.958 1.066-1.582 1.024-9.566-.638-19.112-1.453-28.458-3.747-1.313-.322-2.631-.711-3.862-1.259-1.648-.733-1.689-1.788-.196-2.801.798-.542 1.709-.865 2.639-1.111 7.655-2.027 15.347-3.818 23.353-3.52.309.011.637.045 1.062-.393-.56-.273-1.068-.557-1.603-.776-6.797-2.788-13.577-5.615-20.261-8.666-5.543-2.53-10.867-5.419-15.412-9.563-2.491-2.272-4.715-4.774-6.561-7.601-.789-1.208-1.514-2.463-1.802-3.892-.449-2.225.322-2.983 2.71-2.739l-.045-.04zm112.009 96.456c.232 1.632 1.209 2.966.867 4.549-.082.378.037.829-.432 1.007-.434.165-.716-.137-1.045-.376-1.522-1.107-2.109-2.797-2.666-4.444-.347-1.028.592-1.555 1.397-1.429 1.489.234 1.621-.644 1.957-1.699 2.405-7.539 4.302-15.205 5.914-22.946.44-2.111.798-4.233.888-6.397.186-4.462-1.14-8.515-3.342-12.313-6.531-11.263-13.128-22.487-20.672-33.117-1.108-1.561-2.328-3.044-3.504-4.557-.332-.428-.873-.8-.448-1.433.407-.606 1.059-.691 1.711-.61.837.104 1.439.683 2.03 1.207 1.981 1.755 3.682 3.768 5.272 5.877 6.073 8.053 11.205 16.711 16.313 25.384 1.094 1.857 2.11 3.761 3.222 5.607 3.354 5.567 4.082 11.527 2.587 17.771-2.007 8.383-4.108 16.743-6.794 24.943-.526 1.606-1.24 2.974-3.256 2.976zm-18.238-30.689c1.756 3.032 2.52 6.356 3.4 9.638.726 2.708 1.098 5.481 1.284 8.27.134 2.011-.299 3.974-.935 5.875-.379 1.134-.838 2.244-1.32 3.34-3.575 8.122-1.751 15.594 2.762 22.718.326.514.646 1.698 1.764.698.3-.269.541.214.66.486.561 1.282.158 2.36-1.093 2.996-1.692.86-3.543.366-5.085-1.464-2.042-2.423-3.276-5.28-4.205-8.271-1.74-5.605-1.247-11.017 1.402-16.264 1.436-2.845 2.941-5.666 3.449-8.89.672-4.271-.093-8.434-.82-12.602-.381-2.184-.84-4.354-1.263-6.53z"/><path d="M414.254 669.661c1.15-1.001 2.422-1.264 3.609-1.67 5.367-1.832 10.771-3.556 16.122-5.432 7.599-2.665 14.559-6.496 20.93-11.457 7.096-5.526 15.15-9.193 23.88-11.216 4.207-.975 8.585-.703 12.9-.674a4.812 4.812 0 0 1 1.87.388c2.042.905 4.083 1.824 6.058 2.865 1.145.604 1.139 1.481.114 2.233-1.045.767-2.212.919-3.403.399-1.096-.479-2.206-.959-3.223-1.582-1.766-1.083-3.664-1.323-5.696-1.526-11.497-1.148-21.502 3.058-30.553 9.282-12.439 8.554-26.22 13.829-40.384 18.424-.526.171-1.087.241-1.638.318-.114.016-.252-.144-.588-.352zm-81.67-455.025c.621-.377.805-.585.997-.592 4.973-.184 9.758-1.576 14.65-2.274 11.917-1.699 23.838-2.096 35.767-.105 3.62.604 7.252 1.139 10.861 1.799 1.691.309 3.474.611 4.452 2.705-3.55.016-6.874-.479-10.204-1.013-5.197-.834-10.373-1.822-15.621-2.316-7.105-.67-14.202-.304-21.278.362-4.922.463-9.817 1.207-14.727 1.797-1.499.18-3 .146-4.898-.363zM452.46 632.981c-11.043 1.153-21.788.722-32.642.652.173 1.637 1.215 2.596 1.66 3.87-1.246-.958-2.387-2.014-3.198-3.364-.605-1.006-.375-1.64.742-2.035.667-.236 1.399-.335 2.11-.386 8.14-.588 16.292-.582 24.446-.471 2.366.032 4.518.784 6.881 1.735zm-28.357-425.346c.458-.005.699.185.786.521.099.383.187.778.209 1.171.223 3.977 1.624 7.626 3.206 11.202 1.548 3.497 3.234 6.932 4.878 10.385.212.445.492.872.1 1.307-.486.541-1.027.227-1.52-.028-.805-.416-1.378-1.096-1.836-1.846-3.13-5.129-5.733-10.488-6.973-16.419-.347-1.662-.185-3.339.068-4.999.099-.649.383-1.226 1.082-1.295zm1.934 25.77c-1.082.485-1.991.097-2.79-.649-.405-.378-.807-.8-1.074-1.279-2.735-4.897-5.116-9.939-6.252-15.487a5.666 5.666 0 0 1 .279-3.287c.154-.392.521-.606.946-.631.492-.029.707.295.769.727 1.075 7.43 4.647 13.856 8.149 20.312.031.058-.012.156-.027.294zm33.458-14.626c-.086.703-.164 1.341-.872 1.628-.795.322-1.437-.052-1.828-.697-1.423-2.347-2.121-4.922-2.195-7.659-.019-.682.404-1.177.95-1.559.657-.46 1.369-.334 1.588.338.856 2.626 1.583 5.295 2.357 7.949zm-23.477 4.018c-1.272-.513-1.982-1.585-2.553-2.715a23.967 23.967 0 0 1-2.502-8.684c-.05-.549.025-1.115.086-1.668.037-.339.26-.597.622-.59.342.007.58.218.672.565.02.077.05.152.064.23.723 4.03 2.285 7.801 3.587 11.653.129.381.263.755.025 1.209zm12.44-130.94c-.686.91-2.172 1.385-3.182.874-.773-.391-1.612-.629-2.331-1.178-1.024-.783-2.296-1.405-3.531-1.323-4.689-.481-10.388-3.809-11.504-4.833-.352-.323-.801-.611-.499-1.176.313-.587.828-.971 1.465-1.15.471-.132.691.162.89.561 1.135 2.636 2.888 2.89 5.207 2.835 2.871-.068 5.73.054 8.566.66 1.271.271 2.178.875 2.92 1.877.501.677.784 1.609 1.867 1.676.563.065.269.998.133 1.178zm-2.906 2.856c-.27.97-1.056 1.104-1.876 1.095-2.245-.025-4.459-.223-6.488-1.329-1.47-.801-2.961-1.563-4.421-2.38-.465-.26-1.119-.582-.782-1.256.322-.645.98-.785 1.65-.462 1.293.623 2.635 1.171 3.846 1.927 1.962 1.225 4.063 1.792 6.35 1.812.619.005 1.291-.062 1.72.594z"/></svg></g></svg>