<svg enable-background="new 0 0 1603.172 1272.075" height="1273" viewBox="0 0 1603.172 1272.075" width="1604" xmlns="http://www.w3.org/2000/svg"><path d="m1402.69 321.748-600.94-141.671-36.525 107.932 5.793 235.862 30.732 190.423 600.94-314.444z"/><path d="m797.153 723.471-32.123-199.046-5.829-237.332 38.615-114.107 610.874 144.012v86.484zm-20.146-200.155 29.34 181.801 590.343-308.9v-69.72l-591.006-139.328-34.434 101.755z"/><path d="m214.88 299.319-5.793 100.138 460.494 383.995 132.169-69.158-14.18-115.941 16.282-148.324-12.144-147.124 10.042-122.828z" fill="#929292ff"/><path d="m668.814 790.625-465.891-388.496 6.234-107.77 599.223-121.752-10.652 130.295 12.151 147.207-16.269 148.207 14.599 119.37zm-453.562-393.84 455.096 379.494 124.943-65.376-13.76-112.512 16.295-148.443-12.137-147.04 9.431-115.36-574.516 116.731z" fill="#010101"/><path d="m1532.398 157.474-136.727-39.705-139.831-28.994-134.06-48.843-138.08-33.375-63.277 54.73-118.673 118.79 108.303 38.966 157.507 51.524 136.988 32.394 129.844 54.822 68.489 14.247 95.452-96.663 94.366-88.93z" fill="#fff"/><path d="m1404.856 378.57-72.259-15.032-129.92-54.854-136.744-32.336-157.912-51.659-117.197-42.166 125.674-125.774 65.611-56.749 141.724 34.295 133.651 48.694 139.635 28.953 137.429 39.908 68.625 32.961-100.645 94.847zm-68.669-26.542 64.719 13.463 93.312-94.49 88.007-82.938-51.978-24.966-136.023-39.5-140.029-29.035-134.153-48.877-134.751-32.571-60.778 52.568-111.839 111.949 99.329 35.737 157.182 51.417 137.233 32.452z" fill="#010101"/><path d="m161.726 131.262-22.241 6.423-128.853 48.703 90.088 93.614 99.388 91.861 131.445-49.257 135.063-38.451 133.434-43.553 108.624-28.18 93.076-32.345-91.421-82.413-90.856-90.004-85.696 31.521-116.788 33.078-140.725 25.921-18.972 5.48" fill="#fff"/><path d="m198.75 378.779-102.354-94.617-96.396-100.169 137.821-52.072 28.004-8.088 3.33 11.528-27.773 8.022-120.117 45.401 83.656 86.931 96.544 89.232 128.211-48.046 135.189-38.486 133.499-43.574.179-.046 108.39-28.12 83.263-28.935-84.09-75.814-88.144-87.318-82.329 30.283-.221.063-117.059 33.154-140.709 25.919-24.452 7.062-3.329-11.529 25.314-7.281 140.449-25.87 116.295-32.938 89.063-32.76 93.468 92.592 98.851 89.111-103.123 35.816-108.444 28.134-133.477 43.561-134.828 38.384z" fill="#010101"/><path d="m1405.372 843.672-.517-35.641 5.77-143.391 1.18-143.398-8.924-149.212-58.514 43.904-125.698 65.416-135.847 41.841-139.697 26.604-140.59 1.018-55.014 88.885 29.793 209.793-13.241 153.104 6.621 131.172 25.704 132.265 143.673-19.254 136.596-30.471 134.917-37.574 128.193-56.519 61.01-27.396 6.151-143.394-.251-17.239z" fill="#fff"/><path d="m1417.807 521.085v.209l-1.191 143.591-5.759 143.22.6 41.48-5.99.08-6.01.089-.6-41.799v-.161l5.77-143.299 1.18-143.1-8.25-137.871-49.98 37.5-126.62 65.901-.52.16-136.17 41.939-.32.061-140.23 26.709h-.55l-135.43.98-1.84.01-5.5 8.891-7.901 12.76-38.729 62.569 29.579 208.321-13.259 153.38 6.58 130.34 18.409 94.72 3.691 19.03v.01l2.44 12.53 2.099-.28 135.711-18.19 136.19-30.381 134.35-37.419 127.8-56.34 57.59-25.86 5.99-139.53-.341-23.061 12-.179.341 23.409v.181l-6.31 147.09-64.39 28.91-128.63 56.71-135.63 37.77-136.85 30.53-.261.03-139.08 18.64-5.279.71-5.161-.56-1.19-6.16-1.199-6.17-24.23-124.69-6.671-132.011.04-.409 13.181-152.42-30-211.27 50.15-81.03 7.66-12.38.09-.14 3.3-.02 6.99-.05 133.069-.971 138.841-26.439 135.009-41.581 124.77-64.939 67.051-50.301z" fill="#010101"/><path d="m1492.673 447.186-89.792-75.156-66.027 21.125-127.959 57.943-136.168 33.536-136.656 29.986-133.536 36.193 93.725 85.885 99.204 93.785 131.19-23.602 131.71-41.746 131.021-42.96 129.42-47.716 68.238-32.337z" fill="#fff"/><path d="m993.544 736.925-101.406-95.867-101.692-93.185 144.339-39.114 136.583-29.97 135.556-33.384 127.772-57.859 69.503-22.237 92.73 77.646 100.352 100.955-76.399 36.178-129.626 47.788-131.021 42.96-132.135 41.881-.381.069zm-178.92-183.172 85.689 78.521 97.07 91.767 127.827-22.998 131.34-41.629 130.86-42.907 129.067-47.586 60.327-28.587-88.194-88.723-87.049-72.859-62.55 20.012-128.147 58.029-.537.132-136.316 33.57-136.512 29.954z" fill="#010101"/><path d="m803.872 762.262-11.403-141.559 10.066-69.89-99.93 4.782-114.811-21.578-138.278-34.787-130.662-55.669-118.746-71.698-1.027 142.793 5.293 143.398-.358 107.198-9.549 132.964 4.177 189.865 57.301 41.256 131.869 50.39 144.308 33.523 127.86 37.879 136.416 14.903 9.759-79.077-2.815-141.571-9.785-141.559z" fill="#fff"/><path d="m809.337 1045.115-9.76-141.28 10.31-141.6-11.38-141.34 9.23-64.12.86-6 .87-6.01.04-.29-7.03.34-3.39.16-96.07 4.59-113.94-21.41-137.64-34.63-129.84-55.32-127.41-76.93-1.11 153.47 5.3 143.41-.36 106.87-9.53 132.76-.02.28 4.24 193.14 60.37 43.46 132.6 50.67.38.14 144.53 33.58 127.69 37.83.52.15 132.55 14.48 5.16.56 5.28-.71.76-6.15.76-6.16 8.86-71.79zm-16.64 201.88v.01l-1.53 12.42-2.21-.24-127.79-13.96-127.34-37.73-.17-.05-144.09-33.47-130.75-49.96-54.24-39.06-4.11-186.59 9.55-132.89.36-107.4v-.12l-5.3-143.39.96-132.12 110.08 66.47 131.48 56.02 138.73 34.9 115.86 21.79 89.24-4.27 4.13-.2-.93 6.43v.01l-2.13 14.84-6.06 42.08 11.42 141.77-10.31 141.53 9.8 141.84 2.8 140.99-5.07 41.12z" fill="#010101"/><path d="m660.789 517.444-149.021-33.949-115.03-45.127-112.658-25.071-83.972-41.434-97.228 74.49-78.828 101.064 79.518 45.971 112.966 33.517 146.896 52.552 145.655 37.241 98.414 16.612 96.207-112.06 98.827-70.437z" fill="#fff"/><path d="m609.845 739.791-102.244-17.28-145.927-37.311-147.004-52.59-113.488-33.672-86.101-49.776 83.54-107.104.61-.467 100.187-76.759 86.669 42.765 112.407 25.016 115.045 45.133 148.624 33.858 154.643 36.405-109.022 77.704zm-99.512-28.967 94.824 16.006 94.474-110.042 88.632-63.17-128.825-30.328-149.442-34.045-115.016-45.121-112.907-25.126-81.276-40.104-93.657 71.756-74.117 95.023 72.936 42.165 112.442 33.362.156.056 146.633 52.458z" fill="#010101"/></svg>