<svg viewBox="114.74999999999989 51 803.2500000000001 879.7499999999999" xmlns="http://www.w3.org/2000/svg" xmlns:xlink="http://www.w3.org/1999/xlink" overflow="visible" width="803.2500000000001px" height="879.7499999999999px"><defs><polygon id="masterspot-illustrationplanning-path-1" points="0.6017 0.148 107.7217 0.148 107.7217 265 0.6017 265"/><polygon id="masterspot-illustrationplanning-path-3" points="0.302904145 0.494 189.197939 0.494 189.197939 192.743236 0.302904145 192.743236"/></defs><g id="Master/Spot Illustration/Planning" stroke="none" stroke-width="1" fill="none" fill-rule="evenodd"><g id="Planning" transform="translate(25.000000, 63.000000) scale(1 1)"><defs><polygon id="planningpen-and-paper-path-1" points="0.6017 0.148 107.7217 0.148 107.7217 265 0.6017 265"/><polygon id="planningpen-and-paper-path-3" points="0.302904145 0.494 189.197939 0.494 189.197939 192.743236 0.302904145 192.743236"/></defs><g id="Planning/Pen and Paper" stroke="none" stroke-width="1" fill="none" fill-rule="evenodd"><g id="Group-33" transform="translate(211.000000, 0.000000)"><path d="M438.9089,130.2656 C438.9089,130.2656 178.6299,129.3266 92.8449,136.1146 C92.8449,136.1146 39.2289,134.7336 36.3049,201.7126 C33.3809,268.6916 36.3049,756.1056 36.3049,756.1056 C36.3049,756.1056 33.1369,801.9226 90.8949,801.9226 C138.6619,801.9226 410.6389,794.1236 443.7829,792.1736 C476.9279,790.2246 496.4239,778.5266 497.3989,726.8606 C498.3739,675.1946 497.3989,201.7126 497.3989,201.7126 C497.3989,201.7126 504.2139,130.2716 438.9089,130.2656" id="Fill-1" fill="#605c5c"/><path d="M467.7341,217.6768 L471.4031,736.9338 C471.4031,736.9338 471.4031,771.7868 442.8441,771.7868 C424.6351,771.7868 370.6711,774.1398 370.6711,774.1398 L46.7991,777.361654 C36.5521,777.4618 28.5211,768.5848 29.6441,758.3988 L35.0051,709.8008 L448.0071,190.3798 L460.2411,197.4818 L467.7341,217.6768 Z" id="Fill-3" fill="#ebe0e0"/><path d="M112.6662,178.6826 C112.6662,178.6826 84.0712,174.7836 78.5472,203.0526 C75.8872,216.6666 74.3202,312.5316 59.7012,415.8906 C41.7832,542.5626 9.8332,683.0356 0.8862,728.4856 C0.8862,728.4856 -8.0498,763.4166 30.8332,766.7906 C64.5562,769.7176 403.8152,760.9796 403.8152,760.9796 C403.8152,760.9796 427.2112,764.2296 429.8112,736.2846 C431.2812,720.4756 450.9442,571.8786 460.3552,436.3616 C467.5802,332.3276 468.6462,252.3246 467.6032,211.7866 C467.6032,211.7866 469.1282,180.4696 442.1592,177.9856 C414.9442,175.4786 112.6662,178.6826 112.6662,178.6826" id="Fill-5" fill="#f3f5f3"/><path d="M116.5656,259.1055 L116.5656,229.1055 L131.639572,229.119976 C140.361145,229.139394 147.617677,229.179787 156.044145,229.249682 L181.755469,229.48031 C191.247151,229.552694 199.613176,229.586406 211.067399,229.595134 L218.849033,229.59793 L223.22302,229.608821 C239.088146,229.677932 249.200919,230.071897 263.436175,231.020887 L273.195942,231.697361 C288.582161,232.749984 298.501713,233.143634 315.715571,233.184826 L336.327166,233.205658 C344.562284,233.224783 351.641463,233.261244 359.985352,233.321648 L379.887883,233.476161 C392.168215,233.56381 401.787553,233.598778 416.770396,233.603047 L420.0626,233.6035 L420.0626,263.6035 L400.602002,263.581216 C392.024864,263.557752 384.529228,263.514036 375.198006,263.442104 L359.069343,263.315837 C346.789212,263.228189 337.17012,263.193222 322.187708,263.188953 L317.775136,263.18807 L313.401025,263.177179 C297.535457,263.108067 287.422444,262.714095 273.186982,261.765092 L263.427186,261.088616 C248.041189,260.036007 238.121888,259.642365 220.908535,259.601174 L202.690304,259.583104 C192.291496,259.560032 183.978607,259.507186 173.291878,259.410138 L156.158142,259.251671 C145.089522,259.159123 136.112243,259.117685 123.22661,259.107866 L116.5656,259.1055 Z" id="Stroke-7" fill="#b4acac" fill-rule="nonzero"/><path d="M110.716,346.475 L110.7165,316.4766 L110.691604,316.475528 C111.105175,316.44068 151.353382,315.564449 179.188685,315.060852 L190.826288,314.855942 L218.461543,314.395096 C223.535613,314.298635 228.931784,314.182895 235.585446,314.029011 L286.310501,312.821779 C290.592976,312.728815 294.401288,312.652477 298.125803,312.584878 L313.529374,312.326271 C328.060568,312.064807 338.157965,311.766475 348.988734,311.324172 L364.052176,310.677801 C374.232776,310.257019 382.506831,309.998666 394.123581,309.775858 L403.544919,309.613434 L404.014081,339.609766 L396.485979,339.736812 C383.55178,339.97388 374.964864,340.244043 363.746039,340.716689 L350.897102,341.271096 C339.821646,341.728143 329.585534,342.036806 315.02152,342.304086 L296.514993,342.619896 C292.195085,342.701552 287.659331,342.796885 282.311743,342.917951 L231.837892,344.122238 C222.863444,344.323465 216.10237,344.452764 208.642666,344.568788 C202.900606,344.658055 197.130133,344.752451 191.338972,344.851561 L166.795608,345.298984 C156.321388,345.501783 145.199712,345.729326 135.645393,345.929938 L110.716,346.475 Z" id="Stroke-9" fill="#b4acac" fill-rule="nonzero"/><path d="M98.3689,429.0117 L98.3689,399.0117 L107.903426,399.02174 C121.044413,399.052236 130.333099,399.155484 142.730579,399.375794 L159.516672,399.683109 C172.308004,399.898104 182.150172,399.980406 197.960387,399.987232 L204.57056,399.993916 C222.609482,400.04733 233.192372,400.452374 250.021653,401.492455 L255.936844,401.859087 C272.042148,402.834352 282.229904,403.175563 300.890346,403.188326 L308.51744,403.182022 C324.736835,403.14642 334.739146,402.963614 350.43787,402.518241 L359.22301,402.271393 C374.198341,401.870032 384.64826,401.724532 402.700085,401.718873 L403.8149,401.7187 L403.8149,431.7187 L396.379853,431.727562 C381.016985,431.767174 371.186137,431.94473 356.316585,432.36259 L347.51345,432.611105 C332.348136,433.022962 321.955695,433.176589 304.208597,433.188005 L298.639845,433.185137 C279.61522,433.143375 268.905349,432.728416 251.179146,431.623168 L245.302302,431.260673 C230.66892,430.384706 220.821609,430.042145 204.49745,429.993798 L189.668619,429.975236 C176.067886,429.939366 166.522613,429.822063 152.97432,429.572036 L139.654187,429.326789 C127.712308,429.12361 118.425737,429.035138 104.701509,429.01586 L98.3689,429.0117 Z" id="Stroke-11" fill="#b4acac" fill-rule="nonzero"/><path d="M381.450416,491.64593 L381.918984,521.64227 L378.776335,521.69595 C361.782694,522.012881 352.275173,522.653887 336.629599,524.233365 L333.734206,524.528275 C315.772709,526.355395 305.266933,527.04766 284.934288,527.365266 L256.248601,527.790137 L211.624827,528.369881 L180.571226,528.833218 C167.769325,529.009252 158.891293,529.052494 147.450141,529.020098 L130.713656,528.952742 C120.279163,528.92305 112.036591,528.956954 100.88917,529.098957 L90.8179933,529.24327 L90.3494067,499.24693 L96.664259,499.152945 C111.999884,498.937621 121.647271,498.908822 136.254592,498.97291 L147.504592,499.020137 C159.098424,499.053082 167.990202,499.00742 181.1692,498.822003 L217.590062,498.28499 L259.025633,497.749016 C266.214433,497.648846 273.62112,497.538173 283.372211,497.386009 L287.608169,497.315249 C303.582696,497.01733 312.942262,496.43305 327.003015,495.052105 L335.526387,494.193944 C351.475175,492.612394 361.823454,491.971004 380.351022,491.66363 L381.450416,491.64593 Z" id="Stroke-13" fill="#b4acac" fill-rule="nonzero"/><path d="M71.0739,611.4648 L71.0739,581.4648 L74.3902839,581.469463 C92.7151367,581.522737 103.351306,582.03988 119.92292,583.395953 L125.828205,583.886176 C141.659332,585.181998 151.565899,585.663012 169.011384,585.713314 L173.342063,585.717541 L179.703305,585.704192 C193.813677,585.648481 203.198416,585.414934 216.300579,584.880024 L227.046881,584.424494 C242.685594,583.776944 253.132862,583.536393 271.197731,583.518847 L281.796278,583.509306 C294.240848,583.481791 303.087566,583.384515 314.259254,583.175569 L333.186201,582.795671 C345.980477,582.556514 355.804649,582.461374 371.252574,582.449982 L374.5709,582.4488 L374.5709,612.4488 L365.202423,612.459612 C350.039591,612.498221 340.142237,612.645236 324.303827,612.979952 L317.132076,613.126165 C302.849032,613.404299 292.659677,613.50912 275.634231,613.517278 L271.210088,613.518844 C253.616255,613.536001 243.546095,613.767122 228.310659,614.397855 L218.592977,614.811092 C203.892377,615.419798 193.778908,615.668875 177.613395,615.711147 L171.111675,615.717288 L167.792529,615.709234 C150.890759,615.641095 140.510478,615.157713 125.396109,613.949232 L115.609436,613.144812 C101.153455,611.987435 91.4565606,611.536447 75.3362058,611.472824 L71.0739,611.4648 Z" id="Stroke-15" fill="#b4acac" fill-rule="nonzero"/><path d="M358.145298,672.651027 L370.6712,672.6514 L370.6712,702.6514 L281.153751,702.630993 L259.054285,702.634499 C241.59767,702.657163 231.091064,702.776995 213.650527,703.072744 L204.876906,703.215064 C192.31087,703.407206 182.65716,703.493149 168.595444,703.51413 L154.368513,703.525821 C137.579169,703.560767 127.259339,703.743144 111.028954,704.188932 L103.070651,704.406457 C88.3368491,704.794236 77.9941947,704.953173 61.5825922,704.980153 L56.1262,704.9844 L56.1262,674.9844 L62.6353107,674.978173 C78.1168775,674.946499 88.0938912,674.790016 102.230605,674.418186 L114.962374,674.072893 C129.204239,673.702857 139.452977,673.550052 155.514958,673.523647 L171.67631,673.508248 C186.86414,673.473015 197.052377,673.349895 213.141873,673.077056 L222.391523,672.927487 C234.961148,672.736873 244.676663,672.653228 258.993125,672.634558 L358.145298,672.651027 Z" id="Stroke-17" fill="#b4acac" fill-rule="nonzero"/><path d="M551.674,98.7764 C551.674,98.7764 553.649,65.6784 553.883,56.8264 C554.548,31.6864 566.53,29.8584 569.931,51.7344 C573.733,76.1934 576.116,97.3554 576.116,97.3554 C576.116,97.3554 563.256,113.8924 551.674,98.7764" id="Fill-19" fill="#706b6b"/><path d="M628.2692,472.374 C626.5632,441.724 615.5962,282.095 615.5962,282.095 L609.0162,188.268 L524.0442,190.38 C524.0442,190.38 535.4832,402.124 545.6022,578.822 L638.0192,569.654 C634.1662,535.578 629.2742,490.425 628.2692,472.374" id="Fill-21" fill="#b4acac"/><path d="M588.6716,103.0449 C588.6716,103.0449 587.2046,85.6669 570.5106,85.6669 C556.8636,85.6669 545.0436,83.4739 539.3166,106.6259 C534.2886,126.9489 524.0446,190.3799 524.0446,190.3799 L566.5566,189.3229 L609.0166,188.2679 L588.6716,103.0449 Z" id="Fill-23" fill="#ebe0e0"/><g id="Group-27" transform="translate(545.000000, 569.506000)"><mask id="planningpen-and-paper-mask-2" fill="#ffffff"><use xlink:href="#planningpen-and-paper-path-1" fill="#f3f5f3"/></mask><g id="Clip-26"/><path d="M53.4557,264.911 C53.4557,264.911 107.0717,267.835 107.7217,240.215 L97.8917,42.325 C97.8917,42.325 95.7087,23.933 93.0187,0.148 L0.6017,9.316 C7.5377,130.424 13.8517,235.068 15.4377,243.79 C19.3367,265.235 53.4557,264.911 53.4557,264.911" id="Fill-25" fill="#706b6b" mask="url(#planningpen-and-paper-mask-2)"/></g><path d="M616.3278,508.8242 C616.3278,508.8242 622.5018,623.2042 623.1518,638.1512 C623.8018,653.0982 630.3008,784.7002 630.3008,784.7002 C630.3008,784.7002 629.8128,794.9362 638.4238,795.4242 C647.0348,795.9112 655.3208,795.4242 655.3208,795.4242 C655.3208,795.4242 664.7448,795.5862 665.0688,780.9642 C665.3938,766.3412 659.8698,671.6202 659.8698,649.8492 C659.8698,628.0782 650.7718,514.9982 650.9338,514.5112 C651.0968,514.0232 649.3088,494.5262 637.2858,495.1772 C625.2638,495.8262 625.2638,496.3132 625.2638,496.3132 C625.2638,496.3132 615.7158,497.4582 616.3278,508.8242" id="Fill-28" fill="#ebe0e0"/><g id="Group-32" transform="translate(176.000000, 0.506000)"><mask id="planningpen-and-paper-mask-4" fill="#ffffff"><use xlink:href="#planningpen-and-paper-path-3" fill="#f3f5f3"/></mask><g id="Clip-31"/><path d="M81.5876,50.2098 C81.3816,26.6578 120.9326,25.5148 120.905614,50.5458 C120.8786,75.7928 81.7966,74.1058 81.5876,50.2098 M188.9816,106.7498 C188.4936,92.6148 166.5606,94.5638 166.5606,94.5638 L147.1456,94.1428 C142.1276,94.0338 139.9896,87.7738 143.8546,84.5718 C151.7856,77.9988 157.6926,67.7898 158.7616,53.6218 C160.7116,27.7888 142.7256,0.4938 103.1966,0.4938 C70.0526,0.4938 50.2096,14.8048 44.8686,42.1778 C40.1366,66.4318 49.5236,79.8228 57.6366,86.6038 C60.3226,88.8488 58.8616,93.2308 55.3696,93.4768 C45.4306,94.1768 31.1776,95.1828 19.3606,96.0268 C-1.1104,97.4888 0.3246,112.1108 0.3246,112.1108 L0.3246,179.5668 C0.3246,186.9908 6.4556,192.9488 13.8766,192.7378 L176.2596,188.1238 C183.3596,187.9218 189.0216,182.1368 189.0616,175.0338 C189.1756,154.9138 189.3346,116.9908 188.9816,106.7498" id="Fill-30" fill="#817b7b" mask="url(#planningpen-and-paper-mask-4)"/></g></g></g></g><g transform="translate(-28.000000, 174.000000) scale(1 1)" id="Master/Character/Standing"><g id="Master/Character/Standing" stroke="none" stroke-width="1" fill="none" fill-rule="evenodd"><g id="Standing/Lower Body" transform="translate(14.000000, 442.000000) scale(1 1)"><g id="Standing/Lower Body/Walking" stroke="none" stroke-width="1" fill="none" fill-rule="evenodd"><g id="Group-332" transform="translate(252.000000, 155.000000) scale(-1, 1) translate(-252.000000, -155.000000) translate(142.000000, 0.000000)"><g id="Group-74" transform="translate(0.000000, 0.142000)"><path d="M189.6183,170.0922 L132.1503,159.5222 C128.7343,158.8932 126.1853,156.0182 125.9723,152.5512 L118.1893,26.2792 C118.1893,12.2392 106.8073,0.8582 92.7673,0.8582 L44.6893,0.8582 C30.6493,0.8582 19.2673,12.2392 19.2673,26.2792 L2.6423,138.3352 C2.6423,138.3352 -9.6607,185.5522 25.9173,199.8502 C61.4963,214.1482 175.5473,242.0782 175.5473,242.0782 L192.1163,173.9452 C192.5443,172.1812 191.4033,170.4202 189.6183,170.0922" id="Fill-34" fill="#333131"/><path d="M63.6579,202.5101 L63.6579,279.1541 L133.3189,278.4891 C133.3189,278.4891 135.2309,278.7381 135.1479,275.4951 C135.0639,272.2531 130.4919,202.5101 130.4919,202.5101 L63.6579,202.5101 Z" id="Fill-36" fill="#333131"/><path d="M175.5475,242.0785 C175.5475,242.0785 170.0615,258.7035 168.8975,276.4935 C167.7335,294.2825 189.1805,296.7765 194.1685,281.4805 C199.1555,266.1845 205.6395,241.0805 206.9695,234.4315 C208.2995,227.7805 216.1135,201.1805 217.4435,193.5315 C218.2495,188.8995 218.9705,185.6015 219.4135,183.7225 C219.6565,182.6935 219.0195,181.6665 217.9925,181.4175 L191.8405,175.0775 L175.5475,242.0785 Z" id="Fill-38" fill="#605c5c"/><path d="M63.6579,279.1537 C63.6579,279.1537 33.7319,279.3197 26.7489,280.4837 C19.7659,281.6467 15.7759,290.1267 18.4359,298.1067 C21.0959,306.0867 29.5759,308.2487 43.2079,308.2487 L130.4919,308.2487 C132.3209,308.2487 135.1529,307.9157 135.149902,302.9277 C135.1479,297.9397 133.3189,278.4887 133.3189,278.4887 L63.6579,279.1537 Z" id="Fill-40" fill="#605c5c"/><path d="M56.3322,266.7279 C56.0642,266.7279 55.7842,266.7589 55.4882,266.8219 C55.0662,266.9109 53.9442,267.1479 54.1072,269.0989 C54.3552,272.0759 57.4742,276.3699 62.0142,277.4229 C61.6582,274.2689 60.6242,269.2489 58.2582,267.4079 C57.6702,266.9509 57.0452,266.7279 56.3322,266.7279 M63.6582,280.6539 C63.6372,280.6539 63.6162,280.6529 63.5952,280.6519 C58.7622,280.4499 51.6762,276.0509 51.1182,269.3479 C50.8822,266.5179 52.3202,264.4249 54.8692,263.8859 C56.7952,263.4799 58.6072,263.8769 60.1022,265.0419 C64.6142,268.5559 65.1142,278.0259 65.1562,279.0939 C65.1732,279.5129 65.0142,279.9189 64.7172,280.2149 C64.4352,280.4969 64.0542,280.6539 63.6582,280.6539" id="Fill-42" fill="#060606"/><path d="M71.2819,266.4359 C70.8669,266.4359 70.4779,266.5509 70.0959,266.7839 C67.8369,268.1579 66.2359,273.1979 65.4899,277.1399 C70.1169,275.5169 73.2729,271.4169 73.5269,268.8129 C73.6709,267.3509 72.9329,266.8799 72.2749,266.6329 C71.9239,266.5019 71.5949,266.4359 71.2819,266.4359 M63.6579,280.6539 C63.2749,280.6539 62.9029,280.5069 62.6219,280.2389 C62.2809,279.9129 62.1129,279.4449 62.1689,278.9769 C62.3109,277.7769 63.7009,267.1649 68.5349,264.2219 C69.9929,263.3329 71.6499,263.1949 73.3279,263.8249 C75.5629,264.6629 76.7539,266.6369 76.5129,269.1049 C76.0699,273.6429 70.7819,279.4939 63.9029,280.6329 C63.8209,280.6469 63.7389,280.6539 63.6579,280.6539" id="Fill-44" fill="#060606"/><path d="M66.9269,294.0092 L66.9099,294.0092 C66.0819,293.9992 65.4179,293.3222 65.4269,292.4922 C65.5279,283.3532 62.6269,280.2442 62.5969,280.2142 C62.0279,279.6252 62.0269,278.6812 62.6059,278.1022 C63.1839,277.5242 64.1109,277.5062 64.6999,278.0752 C65.0939,278.4552 68.5419,282.0952 68.4269,292.5262 C68.4179,293.3492 67.7479,294.0092 66.9269,294.0092" id="Fill-46" fill="#060606"/><path d="M166.1003,227.1391 C165.8053,227.1391 165.5043,227.1961 165.1913,227.3081 C163.4213,227.9431 163.2713,228.9511 163.3403,229.7591 C163.6103,232.9531 168.4603,238.0321 173.5553,239.9671 C172.5243,235.7691 170.3653,229.2261 167.3933,227.5121 C166.9603,227.2631 166.5373,227.1391 166.1003,227.1391 M175.5473,243.5781 C175.4603,243.5781 175.3723,243.5711 175.2863,243.5551 C168.4823,242.3491 160.8053,235.3881 160.3503,230.0121 C160.1343,227.4481 161.5293,225.4331 164.1803,224.4851 C165.7833,223.9111 167.4123,224.0601 168.8933,224.9141 C174.3783,228.0781 176.7683,240.4131 177.0233,241.8091 C177.1113,242.2921 176.9573,242.7881 176.6113,243.1361 C176.3273,243.4211 175.9433,243.5781 175.5473,243.5781" id="Fill-48" fill="#060606"/><path d="M172.6232,243.9838 C167.9552,244.7718 162.2722,246.4218 160.8902,248.7998 C160.5082,249.4578 160.5022,250.1178 160.8712,250.9408 C161.1442,251.5488 161.4772,251.7508 162.1082,251.7238 C165.0282,251.5848 170.1122,246.9228 172.6232,243.9838 M161.9962,254.7228 C160.2462,254.7228 158.8872,253.8448 158.1352,252.1698 C157.3732,250.4698 157.4282,248.7838 158.2972,247.2908 C161.3362,242.0688 173.9752,240.7218 175.4052,240.5858 C176.1882,240.5038 176.8582,241.0228 177.0152,241.7678 C177.5562,244.3328 168.8412,252.8098 164.0632,254.3668 C163.3292,254.6058 162.6372,254.7228 161.9962,254.7228" id="Fill-50" fill="#060606"/><polygon id="Fill-52" fill="#a39c9c" points="180.8 220.4789 206.969 234.4309 205.198 242.0789 179.092 227.5009"/><path d="M183.6212,208.8773 C183.6212,208.8773 207.0252,219.4353 210.2392,221.6123 L208.4082,228.4883 C208.4082,228.4883 194.6112,221.6853 190.7322,219.1353 C186.8522,216.5863 182.2362,214.5733 182.2362,214.5733 L183.6212,208.8773 Z" id="Fill-54" fill="#a39c9c"/><path d="M185.9836,199.1615 L212.5666,213.0245 L214.0276,207.5845 C214.0276,207.5845 192.2066,194.8465 187.3686,193.4685 L185.9836,199.1615 Z" id="Fill-56" fill="#a39c9c"/><path d="M176.8776,249.4486 C176.9366,251.1736 179.6116,251.3876 179.5926,249.5586 C179.5716,247.4756 176.8106,247.4746 176.8776,249.4486" id="Fill-58" fill="#181717"/><path d="M173.8908,261.7445 C173.9498,263.4685 176.6248,263.6835 176.6058,261.8535 C176.5848,259.7715 173.8238,259.7695 173.8908,261.7445" id="Fill-60" fill="#181717"/><path d="M43.089,283.9291 C43.148,285.6541 45.823,285.8681 45.804,284.0391 C45.783,281.9561 43.022,281.9551 43.089,283.9291" id="Fill-62" fill="#181717"/><path d="M54.9367,283.9291 C54.9957,285.6541 57.6707,285.8681 57.6517,284.0391 C57.6307,281.9561 54.8697,281.9551 54.9367,283.9291" id="Fill-64" fill="#181717"/><path d="M77.5119,279.0209 C77.5119,279.0209 73.7999,297.1649 73.3559,308.2489 L79.1749,308.2489 C79.1749,308.2489 84.3269,280.0339 84.3279,278.9569 L77.5119,279.0209 Z" id="Fill-66" fill="#a39c9c"/><path d="M90.4806,278.8969 C90.4806,278.8969 86.7676,300.6559 86.6006,308.2489 L92.9736,308.2489 C92.9736,308.2489 96.1326,282.2439 97.1306,278.8969 L90.4806,278.8969 Z" id="Fill-68" fill="#a39c9c"/><path d="M102.839,278.7797 C102.839,278.7797 101.564,287.6877 100.733,291.7887 C99.901,295.8897 99.404,308.2487 99.404,308.2487 L105.665,308.2487 C105.665,308.2487 107.043,295.7787 107.656,291.7337 C108.27,287.6877 109.544,278.7797 109.544,278.7797 L102.839,278.7797 Z" id="Fill-70" fill="#a39c9c"/><path d="M126.3278,160.0043 C126.2318,160.0043 126.1348,159.9943 126.0368,159.9763 C125.1298,159.7973 124.6428,159.4633 124.3218,159.2413 C124.1008,159.0903 124.0268,159.0383 123.7288,158.9813 C123.3848,158.9133 123.2638,158.9323 122.9978,158.9723 C122.6158,159.0313 122.0928,159.1103 121.2338,158.9423 C120.4268,158.7843 120.0088,158.5723 119.6728,158.4013 C119.4348,158.2803 119.2898,158.2073 118.8938,158.1303 C118.2848,158.0103 117.9808,157.9473 117.6758,157.8853 C117.3798,157.8233 117.0838,157.7623 116.4898,157.6463 L114.0868,157.1653 C113.9378,157.1353 113.9378,157.1363 113.6818,157.2453 C113.2678,157.4213 112.5798,157.7163 111.5238,157.5113 C110.9568,157.4003 110.6728,157.3583 110.3868,157.3163 C110.0668,157.2703 109.7458,157.2233 109.1118,157.0993 C108.1788,156.9153 107.6878,156.5533 107.3628,156.3143 C107.1468,156.1533 107.0878,156.1103 106.8178,156.0583 C106.3798,155.9723 106.1848,155.9743 105.9148,155.9833 C105.5618,155.9913 105.1248,156.0023 104.3618,155.8533 C103.5788,155.6993 103.1698,155.5063 102.8408,155.3523 C102.5978,155.2373 102.4368,155.1623 102.0178,155.0803 C101.4688,154.9723 101.1908,154.9383 100.9118,154.9033 C100.5808,154.8623 100.2498,154.8213 99.5968,154.6933 C98.8568,154.5483 98.4628,154.3903 98.1468,154.2623 C97.8878,154.1583 97.7008,154.0823 97.2408,153.9923 C96.6218,153.8713 96.3158,153.8053 96.0088,153.7383 C95.7178,153.6753 95.4258,153.6113 94.8418,153.4973 C94.5698,153.4433 94.4928,153.4623 94.2368,153.5263 C93.8478,153.6243 93.2588,153.7703 92.3308,153.5883 C91.4848,153.4223 91.0358,153.1623 90.7078,152.9723 C90.4798,152.8403 90.3648,152.7743 90.0098,152.7043 C89.3198,152.5683 88.9618,152.4523 88.6478,152.3503 C88.3788,152.2623 88.1478,152.1873 87.6368,152.0873 C86.9298,151.9473 86.5658,151.8193 86.2448,151.7053 C85.9768,151.6103 85.7648,151.5363 85.2728,151.4403 C84.8588,151.3583 84.6828,151.3683 84.4148,151.3823 C84.0478,151.4023 83.5958,151.4273 82.8128,151.2743 C82.3488,151.1833 82.1448,151.1813 81.8638,151.1783 C81.5248,151.1743 81.1028,151.1703 80.3678,151.0263 C79.6718,150.8903 79.3118,150.7693 78.9948,150.6613 C78.7318,150.5723 78.5038,150.4963 78.0008,150.3983 C77.4738,150.2943 77.2038,150.2683 76.9358,150.2423 C76.5938,150.2093 76.2528,150.1763 75.5828,150.0443 C74.6808,149.8673 73.9658,149.4223 73.3908,149.0653 C73.2098,148.9513 73.0288,148.8373 72.8428,148.7363 C71.9798,148.2653 71.2568,147.7023 70.4968,146.9113 C70.3488,146.7563 70.1928,146.6093 70.0388,146.4643 C69.5228,145.9743 68.9368,145.4193 68.5358,144.6093 C68.0928,143.7143 67.9558,142.7873 67.8348,141.9703 L67.7898,141.6673 C67.6398,140.6933 67.7778,139.8333 67.9108,139.0013 L67.9588,138.6933 C68.0288,138.2413 68.0218,138.0463 68.0128,137.7753 C68.0008,137.4413 67.9868,137.0253 68.0998,136.2953 C68.1468,135.9943 68.1238,135.9003 68.0658,135.6513 C67.9748,135.2663 67.8498,134.7383 67.9868,133.8583 C68.1488,132.8093 68.6608,132.2663 68.9658,131.9423 C69.1438,131.7543 69.1438,131.7543 69.1628,131.6263 C69.1808,131.5113 69.1808,131.5113 69.0678,131.2853 C68.8638,130.8803 68.5228,130.2013 68.6878,129.1393 C68.7798,128.5463 68.8298,128.2473 68.8798,127.9523 C68.9288,127.6593 68.9778,127.3703 69.0688,126.7843 C69.1898,126.0013 69.3698,125.5893 69.5158,125.2573 C69.6208,125.0173 69.6838,124.8723 69.7458,124.4773 C69.8248,123.9683 69.8368,123.7093 69.8488,123.4503 C69.8638,123.1333 69.8818,122.7733 69.9838,122.1073 C70.1158,121.2583 70.3638,120.8033 70.5458,120.4723 C70.6678,120.2483 70.7238,120.1463 70.7738,119.8163 C70.8628,119.2463 70.8988,118.9603 70.9358,118.6743 C70.9748,118.3683 71.0148,118.0643 71.1088,117.4553 C71.2138,116.7783 71.3128,116.4263 71.3998,116.1133 C71.4738,115.8513 71.5378,115.6233 71.6148,115.1243 C71.6548,114.8673 71.6358,114.8023 71.5628,114.5593 C71.4498,114.1793 71.2778,113.6053 71.4208,112.6833 C71.5358,111.9413 71.6838,111.5453 71.8038,111.2273 C71.8948,110.9803 71.9628,110.8013 72.0298,110.3643 C72.0908,109.9713 72.0738,109.8143 72.0468,109.5533 C72.0088,109.1923 71.9608,108.7453 72.0818,107.9623 C72.2108,107.1313 72.4428,106.6833 72.6128,106.3553 C72.7298,106.1293 72.7888,106.0163 72.8428,105.6713 C72.8778,105.4413 72.8628,105.3983 72.7808,105.1503 C72.6508,104.7603 72.4558,104.1703 72.6018,103.2233 C72.7328,102.3753 72.9818,101.9213 73.1638,101.5893 C73.2858,101.3663 73.3418,101.2653 73.3918,100.9383 C73.5178,100.1213 73.7368,99.6783 73.8968,99.3553 C74.0098,99.1283 74.0708,99.0033 74.1268,98.6443 C74.1468,98.5133 74.1468,98.5133 74.0358,98.2793 C73.8468,97.8813 73.5278,97.2133 73.6888,96.1683 C73.7828,95.5643 73.8358,95.2633 73.8888,94.9623 C73.9388,94.6773 73.9888,94.3913 74.0778,93.8173 C74.1798,93.1623 74.2608,92.8403 74.3418,92.5173 C74.4048,92.2613 74.4698,92.0053 74.5498,91.4863 C74.6708,90.7043 74.8508,90.2923 74.9968,89.9613 C75.1018,89.7233 75.1648,89.5793 75.2258,89.1863 C75.3378,88.4583 75.4778,88.0673 75.5898,87.7533 C75.6808,87.5013 75.7448,87.3183 75.8148,86.8723 C75.8528,86.6243 75.8348,86.5663 75.7598,86.3213 C75.6428,85.9393 75.4638,85.3593 75.6078,84.4313 C75.6938,83.8763 75.7228,83.5993 75.7518,83.3193 C75.7848,83.0063 75.8178,82.6913 75.9128,82.0693 C76.0218,81.3683 76.1358,81.0063 76.2368,80.6863 C76.3188,80.4253 76.3828,80.2203 76.4568,79.7433 C76.5258,79.3043 76.5168,79.1123 76.5048,78.8473 C76.4898,78.5093 76.4708,78.0903 76.5848,77.3543 C76.7188,76.4873 76.9868,76.0263 77.1818,75.6903 C77.3078,75.4723 77.3608,75.3813 77.4088,75.0723 C77.5258,74.3163 77.6858,73.9133 77.8158,73.5903 C77.9128,73.3453 77.9788,73.1823 78.0428,72.7633 C78.1058,72.3603 78.0898,72.2003 78.0648,71.9373 C78.0308,71.5813 77.9878,71.1393 78.1068,70.3643 C78.1788,69.9003 78.1758,69.6893 78.1728,69.4213 C78.1678,69.0963 78.1628,68.6913 78.2738,67.9803 C78.3988,67.1713 78.6108,66.7313 78.7658,66.4103 C78.8768,66.1793 78.9388,66.0513 78.9948,65.6843 C79.0478,65.3443 79.0258,65.2193 78.9808,64.9723 C78.9148,64.6063 78.8258,64.1063 78.9538,63.2703 C79.0908,62.3833 79.3908,61.8973 79.5888,61.5753 C79.7228,61.3573 79.7678,61.2833 79.8128,60.9953 C79.9388,60.1763 80.6978,59.6123 81.5238,59.7423 C82.3428,59.8683 82.9038,60.6353 82.7768,61.4533 C82.6398,62.3403 82.3408,62.8263 82.1418,63.1483 C82.0088,63.3663 81.9638,63.4403 81.9188,63.7283 C81.8658,64.0683 81.8888,64.1923 81.9328,64.4413 C81.9988,64.8063 82.0888,65.3073 81.9598,66.1423 C81.8348,66.9503 81.6228,67.3913 81.4678,67.7123 C81.3558,67.9433 81.2948,68.0703 81.2378,68.4393 C81.1658,68.9033 81.1688,69.1143 81.1718,69.3823 C81.1768,69.7073 81.1818,70.1113 81.0708,70.8233 C81.0098,71.2243 81.0238,71.3833 81.0508,71.6483 C81.0848,72.0033 81.1278,72.4463 81.0078,73.2223 C80.8898,73.9783 80.7298,74.3803 80.5998,74.7033 C80.5028,74.9493 80.4368,75.1113 80.3728,75.5313 C80.2378,76.3993 79.9718,76.8583 79.7768,77.1943 C79.6508,77.4123 79.5978,77.5033 79.5498,77.8133 C79.4818,78.2553 79.4898,78.4463 79.5018,78.7123 C79.5168,79.0493 79.5358,79.4683 79.4218,80.2023 C79.3138,80.9033 79.1998,81.2663 79.0988,81.5863 C79.0168,81.8473 78.9528,82.0523 78.8778,82.5273 C78.7928,83.0763 78.7648,83.3543 78.7358,83.6303 C78.7028,83.9463 78.6698,84.2623 78.5728,84.8903 C78.5348,85.1363 78.5518,85.1943 78.6268,85.4393 C78.7448,85.8223 78.9238,86.4013 78.7798,87.3313 C78.6668,88.0583 78.5278,88.4483 78.4148,88.7633 C78.3248,89.0163 78.2598,89.1983 78.1908,89.6453 C78.0698,90.4263 77.8888,90.8383 77.7428,91.1693 C77.6378,91.4083 77.5748,91.5523 77.5138,91.9443 C77.4118,92.6003 77.3308,92.9233 77.2498,93.2453 C77.1868,93.5013 77.1218,93.7573 77.0418,94.2763 C76.9488,94.8803 76.8958,95.1813 76.8428,95.4823 C76.7918,95.7683 76.7428,96.0533 76.6538,96.6273 C76.6328,96.7573 76.6328,96.7573 76.7448,96.9903 C76.9338,97.3903 77.2518,98.0583 77.0908,99.1023 C76.9648,99.9183 76.7458,100.3613 76.5858,100.6853 C76.4738,100.9113 76.4118,101.0363 76.3568,101.3963 C76.2258,102.2443 75.9768,102.6983 75.7938,103.0303 C75.6728,103.2533 75.6178,103.3553 75.5668,103.6813 C75.5308,103.9123 75.5448,103.9573 75.6268,104.2043 C75.7568,104.5943 75.9528,105.1833 75.8068,106.1293 C75.6778,106.9613 75.4458,107.4093 75.2758,107.7363 C75.1588,107.9623 75.0998,108.0753 75.0458,108.4213 C74.9848,108.8163 75.0008,108.9753 75.0298,109.2353 C75.0678,109.5953 75.1148,110.0423 74.9948,110.8233 C74.8798,111.5663 74.7308,111.9613 74.6118,112.2793 C74.5198,112.5263 74.4528,112.7043 74.3858,113.1413 C74.3468,113.3953 74.3658,113.4603 74.4378,113.7033 C74.5518,114.0843 74.7228,114.6593 74.5798,115.5833 C74.4748,116.2603 74.3758,116.6123 74.2888,116.9253 C74.2148,117.1883 74.1508,117.4153 74.0738,117.9143 C73.9848,118.4853 73.9488,118.7723 73.9118,119.0583 C73.8728,119.3623 73.8328,119.6673 73.7388,120.2753 C73.6078,121.1233 73.3588,121.5783 73.1778,121.9103 C73.0558,122.1343 72.9998,122.2353 72.9488,122.5663 C72.8698,123.0743 72.8578,123.3333 72.8458,123.5923 C72.8308,123.9093 72.8128,124.2693 72.7108,124.9353 C72.5898,125.7183 72.4078,126.1313 72.2638,126.4623 C72.1578,126.7023 72.0948,126.8473 72.0328,127.2423 C71.9388,127.8493 71.8888,128.1493 71.8378,128.4513 C71.7898,128.7363 71.7408,129.0253 71.6518,129.5983 C71.6348,129.7133 71.6348,129.7133 71.7478,129.9383 C71.9508,130.3433 72.2918,131.0213 72.1278,132.0843 C71.9648,133.1353 71.4528,133.6773 71.1468,134.0013 C70.9708,134.1893 70.9708,134.1893 70.9508,134.3173 C70.9038,134.6203 70.9258,134.7133 70.9848,134.9623 C71.0758,135.3473 71.1998,135.8743 71.0638,136.7533 C70.9948,137.2043 71.0018,137.4003 71.0108,137.6713 C71.0218,138.0053 71.0368,138.4213 70.9238,139.1503 L70.8728,139.4753 C70.7628,140.1603 70.6768,140.7023 70.7548,141.2123 L70.8028,141.5323 C70.9038,142.2173 70.9908,142.8083 71.2238,143.2793 C71.3878,143.6093 71.7188,143.9233 72.1018,144.2863 C72.2908,144.4653 72.4798,144.6463 72.6618,144.8353 C73.2068,145.4013 73.6898,145.7813 74.2798,146.1033 C74.5148,146.2323 74.7458,146.3743 74.9768,146.5183 C75.4168,146.7923 75.7978,147.0293 76.1608,147.1003 C76.6878,147.2033 76.9568,147.2303 77.2258,147.2563 C77.5678,147.2893 77.9088,147.3223 78.5778,147.4533 C79.2758,147.5903 79.6348,147.7123 79.9528,147.8183 C80.2248,147.9103 80.4418,147.9833 80.9438,148.0823 C81.4098,148.1733 81.6128,148.1753 81.8938,148.1783 C82.2328,148.1823 82.6538,148.1863 83.3898,148.3303 C83.8068,148.4123 83.9828,148.4013 84.2498,148.3883 C84.6158,148.3663 85.0658,148.3423 85.8508,148.4963 C86.5578,148.6353 86.9218,148.7643 87.2438,148.8773 C87.5108,148.9723 87.7228,149.0473 88.2148,149.1433 C88.9048,149.2783 89.2618,149.3953 89.5768,149.4973 C89.8448,149.5853 90.0768,149.6603 90.5868,149.7603 C91.4328,149.9263 91.8828,150.1873 92.2108,150.3763 C92.4388,150.5093 92.5548,150.5753 92.9078,150.6453 C93.1808,150.6973 93.2578,150.6793 93.5138,150.6153 C93.9028,150.5193 94.4928,150.3733 95.4198,150.5543 C96.0318,150.6743 96.3378,150.7403 96.6428,150.8073 C96.9368,150.8703 97.2288,150.9343 97.8178,151.0483 C98.5578,151.1933 98.9518,151.3523 99.2678,151.4803 C99.5268,151.5843 99.7128,151.6593 100.1738,151.7493 C100.7238,151.8583 101.0018,151.8923 101.2808,151.9263 C101.6108,151.9673 101.9418,152.0083 102.5958,152.1363 C103.3788,152.2893 103.7888,152.4833 104.1178,152.6373 C104.3598,152.7513 104.5208,152.8263 104.9388,152.9093 C105.3788,152.9953 105.5758,152.9903 105.8418,152.9833 C106.1948,152.9743 106.6328,152.9643 107.3958,153.1133 C108.3278,153.2973 108.8188,153.6593 109.1438,153.9003 C109.3598,154.0593 109.4178,154.1023 109.6888,154.1543 C110.2508,154.2653 110.5358,154.3073 110.8208,154.3483 C111.1418,154.3963 111.4628,154.4423 112.0998,154.5673 C112.2498,154.5963 112.2478,154.5953 112.5038,154.4863 C112.9178,154.3103 113.6108,154.0163 114.6638,154.2213 L117.0668,154.7023 C117.6748,154.8213 117.9788,154.8843 118.2838,154.9473 C118.5788,155.0083 118.8758,155.0693 119.4698,155.1863 C120.2768,155.3443 120.6948,155.5563 121.0308,155.7273 C121.2688,155.8483 121.4128,155.9213 121.8098,155.9983 C122.1558,156.0673 122.2768,156.0483 122.5418,156.0073 C122.9238,155.9483 123.4448,155.8683 124.3068,156.0363 C125.2148,156.2153 125.7008,156.5493 126.0218,156.7703 C126.2428,156.9223 126.3168,156.9733 126.6148,157.0313 C127.4278,157.1913 127.9568,157.9793 127.7968,158.7923 C127.6578,159.5073 127.0298,160.0043 126.3278,160.0043" id="Fill-72" fill="#060606"/></g></g></g></g><g id="Upper Body" transform="translate(-1.000000, 0.000000) scale(1 1)"><g id="Upper Body/Laptop" stroke="none" stroke-width="1" fill="none" fill-rule="evenodd"><g id="Group-691" transform="translate(152.500000, 272.500000)"><g id="Group-453" transform="translate(0.000000, 0.095000)"><path d="M241.5489,174.4264 L262.3799,74.3814 C262.3799,74.3814 252.8759,47.1744 212.0979,39.9614 C212.0979,39.9614 211.5509,15.4834 160.0019,15.4834 C108.4529,15.4834 106.8899,38.6954 106.8899,38.6954 C106.8899,38.6954 -4.3451,56.6524 0.2789,139.0164 C0.2789,139.0164 6.1749,190.7654 71.0239,182.9044 C70.9179,185.7814 71.5209,189.0814 73.9719,191.7894 C79.9819,198.4274 91.6929,197.6654 98.3559,196.5624 C101.1019,196.1074 103.8799,196.8674 106.1169,198.5244 C108.6669,200.4134 113.3329,202.5834 121.5689,203.0954 C127.8529,203.4864 132.4689,202.2684 135.7249,200.6984 C139.4069,198.9254 143.7659,199.4444 146.8579,202.1154 C150.5619,205.3184 157.1519,208.6544 168.7689,209.4994 C182.7509,210.5184 189.9819,205.5454 193.5739,201.2484 C196.0219,198.3214 199.8399,196.8864 203.5659,197.7124 C207.7369,198.6374 213.2789,199.0844 218.4979,197.0464 C220.6419,196.2094 223.0059,196.1594 225.1979,196.8604 C230.4509,198.5374 240.5249,200.6714 249.3079,196.2434 C257.8439,191.9404 255.8429,175.1594 241.5489,174.4264" id="Fill-429" fill="#504d4d"/><path d="M273.8741,181.274 C273.8741,181.274 301.1821,179.927 301.8441,150.795 C302.5221,120.91 284.6001,114.814 273.8741,114.071 L273.8741,181.274 Z" id="Fill-431" fill="#413f3f"/><path d="M119.8228,61.6696 C119.6548,61.6696 119.4838,61.6416 119.3168,61.5816 C119.0848,61.4986 118.7918,61.4476 118.4808,61.3946 C117.9548,61.3036 117.3568,61.2006 116.7638,60.8986 C116.5298,60.7806 116.2918,60.6726 116.0558,60.5656 C115.5038,60.3156 114.9328,60.0556 114.3888,59.6776 C114.1598,59.5186 113.9158,59.3746 113.6738,59.2316 C113.1808,58.9396 112.6238,58.6076 112.1398,58.1576 C111.4738,57.5356 110.9048,56.8446 110.3308,56.1316 C109.8228,55.4986 109.6678,54.7816 109.5438,54.2056 C109.4948,53.9796 109.4268,53.6686 109.3678,53.5696 C109.2548,53.3816 109.0548,53.1666 108.8438,52.9396 C108.4708,52.5366 108.0478,52.0806 107.7658,51.4486 C107.4638,50.7696 107.4328,50.0936 107.4078,49.5516 C107.3948,49.2736 107.3828,48.9876 107.3338,48.8346 C107.2928,48.7406 107.0658,48.4956 106.9168,48.3326 C106.5068,47.8896 105.9968,47.3386 105.8268,46.5416 C105.6688,45.8046 105.7738,45.1216 105.8578,44.5726 C105.8978,44.3146 105.9428,44.0216 105.9268,43.8866 C105.8138,42.9666 105.7868,42.1636 105.7628,41.4546 L105.7588,41.3186 C105.7388,40.7736 105.6888,40.5656 105.6348,40.3466 C105.5308,39.9116 105.4568,39.5126 105.5358,38.6786 C105.6128,37.8536 106.3368,37.2416 107.1708,37.3256 C107.9948,37.4036 108.5998,38.1356 108.5218,38.9606 C108.4838,39.3616 108.4998,39.4276 108.5518,39.6426 C108.6428,40.0226 108.7278,40.4286 108.7568,41.2136 L108.7608,41.3526 C108.7828,41.9996 108.8078,42.7326 108.9048,43.5226 C108.9708,44.0676 108.8928,44.5786 108.8228,45.0296 C108.7708,45.3666 108.7178,45.7156 108.7598,45.9126 C108.7828,45.9326 108.9858,46.1516 109.1198,46.2966 C109.4958,46.7036 109.9638,47.2106 110.1908,47.9216 C110.3608,48.4536 110.3848,48.9636 110.4048,49.4136 C110.4198,49.7346 110.4348,50.0666 110.5078,50.2306 C110.5858,50.4046 110.8178,50.6556 111.0438,50.8986 C111.3348,51.2126 111.6648,51.5676 111.9378,52.0216 C112.2548,52.5476 112.3778,53.1156 112.4758,53.5726 C112.5258,53.8066 112.6018,54.1596 112.6708,54.2536 C113.1908,54.8996 113.6658,55.4776 114.1858,55.9646 C114.4318,56.1926 114.8068,56.4156 115.2038,56.6496 C115.5078,56.8306 115.8118,57.0136 116.0998,57.2136 C116.4218,57.4366 116.8468,57.6296 117.2988,57.8346 C117.5718,57.9596 117.8488,58.0856 118.1218,58.2246 C118.3118,58.3206 118.6418,58.3776 118.9908,58.4386 C119.3938,58.5076 119.8508,58.5866 120.3288,58.7576 C121.1078,59.0366 121.5138,59.8956 121.2348,60.6756 C121.0148,61.2876 120.4378,61.6696 119.8228,61.6696" id="Fill-433" fill="#060606"/><path d="M202.3526,60.4244 C201.7886,60.4244 201.2476,60.1044 200.9926,59.5584 C200.6416,58.8074 200.9666,57.9144 201.7176,57.5654 C201.9406,57.4604 202.1656,57.3614 202.3886,57.2634 C202.8976,57.0404 203.3766,56.8304 203.7446,56.5864 C203.9586,56.4444 204.1846,56.1544 204.4226,55.8484 C204.6536,55.5524 204.9156,55.2174 205.2426,54.9144 C205.5096,54.6664 205.7946,54.4434 206.0796,54.2234 C206.4166,53.9614 206.7356,53.7144 206.9256,53.4724 C207.1016,53.2484 207.2406,52.8994 207.3886,52.5294 C207.5216,52.1964 207.6716,51.8204 207.8796,51.4514 C208.1536,50.9714 208.4946,50.6014 208.7946,50.2754 C209.0036,50.0484 209.2416,49.7914 209.3006,49.6414 C209.4206,49.3444 209.5536,49.0514 209.6856,48.7604 C209.8926,48.3054 210.0876,47.8754 210.1886,47.5014 C210.2196,47.3834 210.1416,46.9934 210.0946,46.7614 C209.9966,46.2714 209.8846,45.7164 209.9816,45.1084 C210.0636,44.5904 210.2006,44.1354 210.3206,43.7334 C210.4216,43.3934 210.5176,43.0724 210.5306,42.8684 C210.5716,42.1714 210.6306,41.8004 210.6746,41.5294 C210.7196,41.2504 210.7346,41.1554 210.6896,40.6284 C210.6776,40.4924 210.5116,40.1934 210.3786,39.9514 C210.1566,39.5484 209.9036,39.0904 209.7826,38.5264 C209.6616,37.9584 209.6936,37.4174 209.7186,36.9834 C209.7336,36.7274 209.7546,36.3774 209.7116,36.2594 L209.5776,35.8744 C209.3606,35.2564 209.1566,34.6724 208.8986,34.1674 C208.8186,34.0124 208.5716,33.7864 208.3316,33.5704 C208.0116,33.2784 207.6476,32.9474 207.3456,32.5064 C207.1256,32.1844 206.9406,31.8404 206.7576,31.4964 C206.5706,31.1434 206.3936,30.8094 206.1956,30.5794 C205.8216,30.1504 205.5926,29.6754 205.3916,29.2574 C205.2576,28.9824 205.1076,28.6694 204.9916,28.5614 C204.9346,28.5314 204.6316,28.4564 204.4316,28.4064 C203.9176,28.2784 203.2776,28.1194 202.7206,27.6844 C202.4046,27.4364 202.1146,27.1574 201.8266,26.8764 C201.5396,26.5974 201.2676,26.3324 200.9996,26.1554 C200.7706,26.0024 200.4426,25.8764 200.0946,25.7414 C199.7226,25.5984 199.2996,25.4354 198.8836,25.1974 L198.3266,24.8754 C197.8446,24.5954 197.3686,24.3174 196.8656,24.0684 C196.2176,23.7484 195.7966,23.2294 195.4576,22.8124 C195.3276,22.6514 195.1286,22.4064 195.0406,22.3504 C194.8906,22.2874 194.5616,22.2544 194.2426,22.2234 C193.7736,22.1764 193.2416,22.1224 192.6986,21.9184 C192.3556,21.7884 191.9706,21.6934 191.5626,21.5914 C191.1786,21.4954 190.7976,21.3994 190.4266,21.2764 C190.1306,21.1784 189.7736,21.1234 189.3956,21.0674 C189.0016,21.0074 188.5556,20.9394 188.1076,20.8094 C187.7906,20.7174 187.4816,20.6204 187.1746,20.5254 C186.7296,20.3864 186.2906,20.2484 185.8486,20.1364 C185.1716,19.9644 184.6496,19.5904 184.2286,19.2904 C184.0546,19.1654 183.7896,18.9764 183.6886,18.9454 C183.5266,18.9104 183.2046,18.9534 182.8926,18.9974 C182.4066,19.0654 181.8556,19.1404 181.2556,19.0284 C180.5956,18.9034 180.0516,18.6114 179.6156,18.3754 C179.4176,18.2694 179.1206,18.1094 179.0126,18.0914 C178.4136,17.9974 177.8526,17.9354 177.3466,17.8784 L176.6526,17.7984 C176.2116,17.7444 176.1376,17.7744 175.9746,17.8374 C175.5666,17.9984 175.1026,18.1514 174.2786,18.0964 C173.4526,18.0404 172.8276,17.3244 172.8836,16.4984 C172.9386,15.6714 173.6406,15.0434 174.4816,15.1034 C174.6976,15.1164 174.7116,15.1104 174.8726,15.0474 C175.3516,14.8584 175.9146,14.6854 177.0206,14.8204 L177.6806,14.8984 C178.2256,14.9584 178.8306,15.0274 179.4766,15.1274 C180.0916,15.2244 180.5946,15.4954 181.0396,15.7354 C181.3316,15.8934 181.6086,16.0414 181.8106,16.0794 C181.9246,16.1014 182.2486,16.0574 182.4826,16.0254 C183.0016,15.9534 183.6456,15.8644 184.3376,16.0174 C185.0186,16.1664 185.5486,16.5454 185.9746,16.8504 C186.1786,16.9964 186.4576,17.1954 186.5856,17.2284 C187.0796,17.3534 187.5706,17.5064 188.0696,17.6614 C188.3566,17.7514 188.6466,17.8424 188.9416,17.9274 C189.2016,18.0024 189.5136,18.0504 189.8456,18.1004 C190.3076,18.1704 190.8316,18.2504 191.3696,18.4284 C191.6676,18.5274 191.9776,18.6024 192.2886,18.6804 C192.7616,18.7984 193.2506,18.9194 193.7576,19.1114 C193.9316,19.1764 194.2416,19.2074 194.5406,19.2374 C195.0616,19.2894 195.6526,19.3484 196.2536,19.6084 C196.9716,19.9174 197.4226,20.4744 197.7866,20.9214 C197.9176,21.0834 198.1186,21.3284 198.2066,21.3854 C198.7586,21.6574 199.2946,21.9684 199.8346,22.2824 L200.3696,22.5914 C200.5896,22.7174 200.8746,22.8274 201.1756,22.9444 C201.6356,23.1214 202.1576,23.3224 202.6596,23.6554 C203.1596,23.9874 203.5636,24.3814 203.9186,24.7284 C204.1296,24.9334 204.3386,25.1414 204.5696,25.3204 C204.6476,25.3684 204.9546,25.4454 205.1566,25.4954 C205.7346,25.6394 206.4546,25.8194 207.0446,26.3734 C207.5666,26.8624 207.8586,27.4674 208.0926,27.9534 C208.2186,28.2154 208.3496,28.4864 208.4606,28.6134 C208.8846,29.1024 209.1636,29.6274 209.4096,30.0914 C209.5396,30.3374 209.6666,30.5844 209.8236,30.8144 C209.9256,30.9644 210.1316,31.1514 210.3496,31.3494 C210.7466,31.7094 211.2406,32.1584 211.5696,32.8014 C211.9206,33.4884 212.1686,34.1974 212.4096,34.8844 L212.5386,35.2524 C212.7856,35.9454 212.7456,36.6184 212.7136,37.1594 C212.6976,37.4404 212.6796,37.7304 212.7156,37.8994 C212.7446,38.0284 212.8826,38.2794 213.0046,38.5014 C213.2756,38.9904 213.6116,39.6004 213.6776,40.3704 C213.7496,41.2074 213.7106,41.5474 213.6356,42.0084 C213.6016,42.2244 213.5566,42.5024 213.5246,43.0444 C213.4926,43.5974 213.3406,44.1034 213.1946,44.5934 C213.0916,44.9354 212.9956,45.2594 212.9446,45.5784 C212.9356,45.6734 212.9966,45.9724 213.0366,46.1694 C213.1536,46.7554 213.2996,47.4854 213.0846,48.2814 C212.9206,48.8924 212.6656,49.4554 212.4166,50.0004 C212.3026,50.2514 212.1876,50.5044 212.0846,50.7594 C211.8206,51.4194 211.3666,51.9124 211.0006,52.3094 C210.7906,52.5364 210.5916,52.7524 210.4896,52.9324 C210.3656,53.1524 210.2726,53.3974 210.1746,53.6424 C209.9646,54.1664 209.7276,54.7614 209.2856,55.3244 C208.8666,55.8594 208.3616,56.2494 207.9156,56.5944 C207.7016,56.7614 207.4826,56.9284 207.2796,57.1154 C207.1306,57.2534 206.9646,57.4674 206.7896,57.6934 C206.4486,58.1294 206.0256,58.6724 205.4046,59.0854 C204.8206,59.4734 204.1976,59.7464 203.5946,60.0114 C203.3926,60.1004 203.1886,60.1894 202.9856,60.2834 C202.7806,60.3794 202.5646,60.4244 202.3526,60.4244" id="Fill-435" fill="#060606"/><path d="M159.5821,72.0865 C159.5451,72.0865 159.5091,72.0845 159.4731,72.0825 C158.6461,72.0235 158.0241,71.3055 158.0841,70.4785 L158.9271,58.7765 C158.9861,57.9495 159.7451,57.3345 160.5301,57.3885 C161.3561,57.4475 161.9781,58.1655 161.9191,58.9925 L161.0761,70.6935 C161.0191,71.4835 160.3611,72.0865 159.5821,72.0865" id="Fill-437" fill="#060606"/><path d="M175.6026,72.0865 C174.9206,72.0865 174.3046,71.6195 174.1426,70.9285 L171.4016,59.2275 C171.2126,58.4205 171.7136,57.6125 172.5206,57.4245 C173.3196,57.2345 174.1336,57.7355 174.3236,58.5425 L177.0646,70.2435 C177.2526,71.0505 176.7516,71.8575 175.9456,72.0465 C175.8316,72.0735 175.7156,72.0865 175.6026,72.0865" id="Fill-439" fill="#060606"/><path d="M60.378,185.4069 C59.747,185.4069 59.191,185.2019 58.739,185.0359 C58.474,184.9379 58.173,184.8279 58.02,184.8279 L58.018,184.8279 C57.75,184.8289 57.437,184.8689 57.106,184.9119 C56.654,184.9699 56.16,185.0339 55.59,185.0249 L54.933,185.0139 C54.353,185.0059 53.762,184.9959 53.158,184.9689 C52.883,184.9559 52.606,184.9469 52.327,184.9379 C51.799,184.9219 51.265,184.9029 50.723,184.8639 C50.444,184.8449 50.125,184.8609 49.784,184.8789 C49.328,184.9029 48.813,184.9289 48.271,184.8749 C48.048,184.8519 47.745,184.8859 47.424,184.9229 C46.938,184.9769 46.387,185.0389 45.79,184.9589 C45.23,184.8849 44.728,184.7109 44.284,184.5569 C43.964,184.4459 43.661,184.3419 43.404,184.2989 C42.776,184.1919 42.265,183.9349 41.813,183.7089 C41.533,183.5679 41.27,183.4349 41.082,183.3959 C40.819,183.3429 40.506,183.3219 40.174,183.3019 C39.708,183.2709 39.181,183.2379 38.634,183.0999 C38.028,182.9479 37.538,182.6669 37.106,182.4189 C36.834,182.2629 36.577,182.1159 36.377,182.0549 C36.277,182.0339 35.962,182.0679 35.755,182.0909 C35.205,182.1519 34.519,182.2259 33.805,181.9699 C33.152,181.7349 32.665,181.3179 32.274,180.9839 C32.068,180.8079 31.835,180.6089 31.695,180.5499 C31.537,180.4809 31.241,180.4429 30.955,180.4049 C30.452,180.3399 29.827,180.2589 29.224,179.9499 C28.996,179.8339 28.706,179.7329 28.399,179.6269 C27.922,179.4609 27.383,179.2739 26.87,178.9599 C26.164,178.5259 25.942,177.6019 26.376,176.8959 C26.809,176.1899 27.732,175.9699 28.439,176.4019 C28.674,176.5469 29.019,176.6659 29.382,176.7929 C29.755,176.9219 30.178,177.0679 30.59,177.2789 C30.73,177.3509 31.055,177.3929 31.342,177.4299 C31.809,177.4909 32.337,177.5599 32.879,177.7929 C33.438,178.0319 33.873,178.4039 34.223,178.7029 C34.44,178.8879 34.686,179.0979 34.822,179.1479 C34.906,179.1649 35.221,179.1319 35.428,179.1089 C35.941,179.0529 36.578,178.9819 37.244,179.1829 C37.773,179.3429 38.211,179.5949 38.598,179.8159 C38.888,179.9819 39.161,180.1389 39.365,180.1909 C39.646,180.2609 39.995,180.2839 40.365,180.3069 C40.767,180.3329 41.222,180.3619 41.691,180.4589 C42.264,180.5779 42.739,180.8159 43.159,181.0269 C43.435,181.1659 43.72,181.3089 43.902,181.3399 C44.405,181.4249 44.862,181.5829 45.266,181.7219 C45.606,181.8399 45.926,181.9509 46.186,181.9849 C46.419,182.0169 46.746,181.9799 47.09,181.9409 C47.534,181.8919 48.038,181.8359 48.573,181.8899 C48.885,181.9219 49.245,181.9019 49.627,181.8829 C50.044,181.8609 50.478,181.8399 50.94,181.8719 C51.441,181.9089 51.936,181.9239 52.424,181.9399 C52.716,181.9489 53.007,181.9589 53.295,181.9709 C53.867,181.9979 54.428,182.0069 54.979,182.0139 L55.651,182.0259 C55.967,182.0339 56.339,181.9859 56.721,181.9359 C57.129,181.8839 57.551,181.8299 58.005,181.8279 L58.021,181.8279 C58.708,181.8279 59.3,182.0459 59.776,182.2209 C59.975,182.2939 60.274,182.4039 60.377,182.4069 C60.596,182.4009 60.9,182.2939 61.224,182.1809 C61.657,182.0289 62.149,181.8569 62.708,181.8279 C63.194,181.8019 63.653,181.8079 64.082,181.8149 C64.432,181.8209 64.758,181.8279 65.055,181.8039 C65.716,181.7529 66.036,181.7359 66.279,181.7219 C66.576,181.7069 66.747,181.6969 67.379,181.6269 C68.306,181.5219 68.877,181.6999 69.253,181.8179 C69.511,181.8989 69.597,181.9279 69.9,181.8929 C70.151,181.8669 70.198,181.8359 70.427,181.6849 C70.778,181.4529 71.311,181.1019 72.285,180.9979 C72.958,180.9259 73.297,180.9159 73.636,180.9059 C73.916,180.8979 74.197,180.8889 74.754,180.8299 C75.541,180.7469 75.986,180.8019 76.345,180.8469 C76.618,180.8819 76.8,180.9069 77.239,180.8579 C77.783,180.7999 78.052,180.7449 78.321,180.6899 C78.66,180.6209 78.999,180.5519 79.684,180.4779 C80.36,180.4059 80.702,180.3979 81.044,180.3899 C81.322,180.3839 81.601,180.3779 82.152,180.3179 C82.438,180.2879 82.507,180.2469 82.737,180.1079 C83.082,179.9019 83.603,179.5909 84.543,179.4889 C85.197,179.4199 85.527,179.4029 85.857,179.3859 C86.145,179.3709 86.433,179.3559 87.006,179.2949 C88.062,179.1809 88.723,179.5159 89.117,179.7169 C89.374,179.8469 89.382,179.8469 89.55,179.8309 C90.199,179.7609 90.524,179.7409 90.85,179.7209 C91.143,179.7029 91.435,179.6849 92.016,179.6229 L94.474,179.3619 C94.891,179.3169 95.046,179.2569 95.303,179.1559 C95.652,179.0199 96.087,178.8499 96.901,178.7629 C97.171,178.7339 97.232,178.6959 97.46,178.5529 C97.81,178.3309 98.338,177.9969 99.3,177.8939 C100.129,177.8129 100.863,178.4019 100.951,179.2259 C101.04,180.0499 100.443,180.7889 99.62,180.8779 C99.351,180.9059 99.289,180.9449 99.062,181.0889 C98.712,181.3089 98.184,181.6429 97.222,181.7469 C96.805,181.7909 96.649,181.8509 96.393,181.9519 C96.043,182.0879 95.608,182.2579 94.794,182.3439 L92.335,182.6059 C91.686,182.6759 91.36,182.6959 91.035,182.7159 C90.742,182.7339 90.45,182.7519 89.869,182.8139 C88.818,182.9289 88.153,182.5919 87.759,182.3909 C87.502,182.2609 87.496,182.2599 87.325,182.2779 C86.67,182.3479 86.34,182.3649 86.01,182.3819 C85.722,182.3959 85.435,182.4109 84.862,182.4719 C84.578,182.5029 84.509,182.5449 84.278,182.6819 C83.934,182.8879 83.412,183.2009 82.472,183.3019 C81.795,183.3739 81.454,183.3819 81.113,183.3889 C80.834,183.3959 80.556,183.4019 80.003,183.4619 C79.459,183.5199 79.19,183.5749 78.921,183.6299 C78.582,183.6989 78.243,183.7679 77.559,183.8419 C76.772,183.9269 76.324,183.8689 75.968,183.8239 C75.693,183.7899 75.513,183.7659 75.072,183.8129 C74.4,183.8859 74.062,183.8949 73.723,183.9049 C73.442,183.9129 73.161,183.9219 72.605,183.9809 C72.354,184.0079 72.307,184.0389 72.078,184.1889 C71.727,184.4219 71.194,184.7719 70.22,184.8769 C69.298,184.9769 68.731,184.7989 68.357,184.6809 C68.101,184.6009 68.018,184.5739 67.713,184.6079 C66.981,184.6899 66.783,184.6999 66.44,184.7189 C66.211,184.7299 65.91,184.7469 65.29,184.7959 C64.905,184.8259 64.489,184.8209 64.035,184.8149 C63.672,184.8079 63.28,184.8019 62.864,184.8239 C62.735,184.8309 62.459,184.9279 62.215,185.0119 C61.739,185.1789 61.147,185.3859 60.458,185.4059 C60.431,185.4069 60.404,185.4069 60.378,185.4069" id="Fill-441" fill="#060606"/><path d="M62.0967,114.5406 C61.2357,114.5406 60.7447,114.3706 60.3877,114.2476 C60.1417,114.1616 60.0177,114.1186 59.6607,114.1186 C59.2727,114.1186 59.1307,114.1616 58.8737,114.2386 C58.5277,114.3436 58.0527,114.4856 57.2227,114.4856 C56.1767,114.4856 55.5647,114.0966 55.1997,113.8636 C54.9637,113.7136 54.9587,113.7106 54.7867,113.7106 C54.2157,113.7106 53.9307,113.7256 53.6447,113.7386 C53.3227,113.7556 52.9987,113.7706 52.3537,113.7706 C52.0637,113.7706 51.9837,113.8076 51.7447,113.9126 C51.3867,114.0726 50.8447,114.3136 49.9167,114.3136 C49.1617,114.3136 48.7437,114.2316 48.4097,114.1656 C48.1387,114.1126 47.9437,114.0736 47.4807,114.0736 C47.1257,114.0736 47.0027,114.1166 46.7577,114.2026 C46.4007,114.3266 45.9097,114.4976 45.0477,114.4976 C44.1707,114.4976 43.6737,114.3126 43.3107,114.1796 C43.0677,114.0886 42.9557,114.0476 42.6177,114.0476 C41.9447,114.0476 41.6087,114.0186 41.2727,113.9896 C40.9997,113.9666 40.7277,113.9426 40.1837,113.9426 C39.7937,113.9426 39.6527,113.9846 39.3947,114.0616 C39.0487,114.1646 38.5757,114.3066 37.7467,114.3066 C36.8787,114.3066 36.3857,114.1316 36.0267,114.0036 C35.7757,113.9136 35.6607,113.8736 35.3107,113.8736 C34.4827,113.8736 33.8107,113.2016 33.8107,112.3736 C33.8107,111.5446 34.4827,110.8736 35.3107,110.8736 C36.1777,110.8736 36.6707,111.0486 37.0307,111.1766 C37.2817,111.2656 37.3967,111.3066 37.7467,111.3066 C38.1377,111.3066 38.2797,111.2636 38.5367,111.1866 C38.8827,111.0836 39.3557,110.9426 40.1837,110.9426 C40.8567,110.9426 41.1927,110.9716 41.5287,111.0006 C41.8007,111.0236 42.0737,111.0476 42.6177,111.0476 C43.4927,111.0476 43.9907,111.2306 44.3527,111.3656 C44.5977,111.4556 44.7087,111.4976 45.0477,111.4976 C45.4027,111.4976 45.5267,111.4546 45.7717,111.3686 C46.1287,111.2446 46.6187,111.0736 47.4807,111.0736 C48.2367,111.0736 48.6547,111.1566 48.9897,111.2226 C49.2597,111.2756 49.4547,111.3136 49.9167,111.3136 C50.2067,111.3136 50.2857,111.2786 50.5247,111.1726 C50.8827,111.0136 51.4247,110.7706 52.3537,110.7706 C52.9247,110.7706 53.2097,110.7576 53.4957,110.7426 C53.8187,110.7276 54.1417,110.7106 54.7867,110.7106 C55.8327,110.7106 56.4457,111.1006 56.8107,111.3336 C57.0457,111.4826 57.0507,111.4856 57.2227,111.4856 C57.6117,111.4856 57.7517,111.4436 58.0087,111.3666 C58.3557,111.2626 58.8297,111.1186 59.6607,111.1186 C60.5227,111.1186 61.0127,111.2886 61.3697,111.4126 C61.6167,111.4976 61.7407,111.5406 62.0967,111.5406 C62.6357,111.5406 62.9057,111.5156 63.1747,111.4896 C63.5147,111.4586 63.8547,111.4266 64.5347,111.4266 C65.1177,111.4266 65.4097,111.4156 65.7007,111.4056 C66.0177,111.3946 66.3357,111.3836 66.9717,111.3836 C67.4397,111.3836 67.6367,111.3456 67.9087,111.2936 C68.2427,111.2286 68.6587,111.1496 69.4107,111.1496 L71.8487,111.1546 C72.2087,111.1546 72.3327,111.1116 72.5817,111.0266 C72.9397,110.9046 73.4287,110.7366 74.2877,110.7366 C75.1347,110.7366 75.6177,110.8936 75.9697,111.0076 C76.2177,111.0876 76.3547,111.1326 76.7287,111.1326 C77.5647,111.1326 78.0417,111.2806 78.3907,111.3896 C78.6437,111.4676 78.7827,111.5116 79.1627,111.5116 C79.4577,111.5116 79.5387,111.4756 79.7807,111.3696 C80.1377,111.2136 80.6777,110.9776 81.6017,110.9776 C82.4507,110.9776 82.9347,111.1346 83.2867,111.2496 C83.5427,111.3326 83.6707,111.3746 84.0417,111.3746 C84.6677,111.3746 84.9807,111.3816 85.2937,111.3886 C85.5907,111.3946 85.8887,111.3996 86.4837,111.3996 C86.6867,111.3996 86.7107,111.3866 86.9467,111.2486 C87.3287,111.0236 87.9087,110.6856 88.9257,110.6856 C90.0017,110.6856 90.6237,111.1116 90.9957,111.3666 C91.2247,111.5226 91.2247,111.5226 91.3707,111.5226 C91.7647,111.5226 91.9077,111.4796 92.1667,111.4026 C92.5137,111.3006 92.9887,111.1586 93.8177,111.1586 C94.6457,111.1586 95.3177,111.8306 95.3177,112.6586 C95.3177,113.4876 94.6457,114.1586 93.8177,114.1586 C93.4247,114.1586 93.2817,114.2016 93.0227,114.2786 C92.6757,114.3816 92.2007,114.5226 91.3707,114.5226 C90.2947,114.5226 89.6727,114.0966 89.3007,113.8416 C89.0727,113.6856 89.0727,113.6856 88.9257,113.6856 C88.7217,113.6856 88.6977,113.6986 88.4617,113.8366 C88.0787,114.0616 87.5007,114.3996 86.4837,114.3996 C85.8577,114.3996 85.5447,114.3946 85.2317,114.3876 C84.9347,114.3816 84.6367,114.3746 84.0417,114.3746 C83.1937,114.3746 82.7097,114.2176 82.3577,114.1026 C82.1017,114.0196 81.9737,113.9776 81.6017,113.9776 C81.3057,113.9776 81.2247,114.0126 80.9837,114.1176 C80.6257,114.2746 80.0867,114.5116 79.1627,114.5116 C78.3257,114.5116 77.8487,114.3616 77.4987,114.2536 C77.2467,114.1756 77.1087,114.1326 76.7287,114.1326 C75.8807,114.1326 75.3987,113.9766 75.0457,113.8616 C74.7977,113.7816 74.6607,113.7366 74.2877,113.7366 C73.9277,113.7366 73.8037,113.7796 73.5547,113.8646 C73.1977,113.9876 72.7077,114.1546 71.8487,114.1546 L69.4107,114.1496 C68.9437,114.1496 68.7457,114.1866 68.4737,114.2396 C68.1397,114.3036 67.7237,114.3836 66.9717,114.3836 C66.3887,114.3836 66.0967,114.3936 65.8057,114.4036 C65.4887,114.4146 65.1697,114.4266 64.5347,114.4266 C63.9947,114.4266 63.7257,114.4516 63.4557,114.4776 C63.1167,114.5096 62.7767,114.5406 62.0967,114.5406" id="Fill-443" fill="#060606"/><path d="M88.6358,105.8483 C88.6358,105.8483 63.4068,110.9093 59.4538,135.1013 C55.9698,156.4213 64.5138,178.4283 90.6048,181.2743 L88.6358,105.8483 Z" id="Fill-445" fill="#413f3f"/><path d="M86.0939984,74.0543 L88.4808,185.8853 C88.5198,187.7163 90.0148,189.1803 91.8468,189.1803 L270.5068,189.1803 C272.3668,189.1803 273.8738,187.6733 273.8738,185.8143 L273.8738,75.5063 C273.8738,73.6583 272.3838,72.1553 270.5358,72.1393 L89.4898,70.6161621 C87.5908,70.5993 86.0538,72.1563 86.0939984,74.0543" id="Fill-447" fill="#f3f5f3"/><path d="M94.8738,74.0543 L97.1490047,185.8853 C97.1861813,187.7163 98.6112813,189.1803 100.357625,189.1803 L270.664227,189.1803 C272.437261,189.1803 273.8738,187.6733 273.8738,185.8143 L273.8738,75.5063 C273.8738,73.6583 272.453466,72.1553 270.691871,72.1393 L98.1108281,70.6161621 C96.3006174,70.5993 94.8354811,72.1563 94.8738,74.0543" id="Fill-447-Copy" fill="#c6bdbd"/><path d="M176.1475,0.9069 L164.7485,0.9069 C159.5945,0.9069 155.2085,4.6009 154.2925,9.6419 C154.2825,9.7049 154.2735,9.7649 154.2635,9.8289 L154.2585,9.8619 L154.2585,9.8629 C154.2215,10.1079 154.1835,10.3579 154.1455,10.6069 C152.8195,19.3479 151.1815,30.0589 151.1815,30.0589 L186.6145,30.0589 L186.6865,22.2939 L186.7845,11.6419 C186.8385,5.7289 182.0605,0.9069 176.1475,0.9069" id="Fill-449" fill="#413f3f"/><path d="M186.6143,30.0592 C172.7393,29.0832 168.9483,26.1082 169.0823,23.6312 C169.2013,21.4132 171.2863,21.7222 172.1973,21.7432 C176.2113,21.8322 186.6863,22.2932 186.6863,22.2932" id="Fill-451" fill="#252424"/></g></g><circle id="Oval" fill="#f3f5f3" cx="342.5" cy="405.5" r="11.5"/><path d="M223.5,449 L248,449 L248,449 L248,462 L223.5,462 C219.910149,462 217,459.089851 217,455.5 C217,451.910149 219.910149,449 223.5,449 Z" id="Rectangle" fill="#f3f5f3"/></g></g><g id="Head" transform="translate(204.000000, 145.000000) scale(1 1)"><g id="Head/Long Sliick 2" stroke="none" stroke-width="1" fill="none" fill-rule="evenodd"><g id="Group-183" transform="translate(96.000000, 59.000000)"><g id="Group-98" transform="translate(0.000000, 0.738000)"><path d="M58.2133,68.733 C57.8673,63.651 49.5113,59.449 46.7253,58.184 C45.3303,52.112 43.7993,46.546 42.4183,43.963 C39.7133,38.906 31.4673,33.591 18.2783,35.632 C9.5213,36.988 0.1953,45.157 6.2523,59.378 C6.2523,59.378 7.9843,62.825 7.1553,68.509 C7.0643,69.135 6.9343,70.01 6.7783,71.051 L6.7773,71.059 C6.5133,72.819 6.1733,75.075 5.7993,77.54 C5.7903,77.602 5.7803,77.663 5.7713,77.726 L5.7663,77.76 C5.7293,78.005 5.6913,78.255 5.6533,78.504 C5.4233,81.094 6.1303,89.57 25.2073,89.667 L38.1933,90.192 L38.3913,90.2 C38.3913,90.2 42.7423,90.151 45.3763,90.151 C50.8503,90.151 51.7913,84.932 51.1763,81.07 C50.9913,79.91 50.4473,76.691 49.6823,72.586 C51.9793,73.005 58.5573,73.776 58.2133,68.733" id="Fill-94" fill="#413f3f"/><path d="M20.5209,59.0788 C20.5209,59.0788 13.4869,58.2478 12.5409,63.7388 C12.0289,66.7058 13.6249,68.4698 15.0309,69.4528 C16.4499,70.4458 16.4559,72.5278 14.9699,73.4158 L7.3869,77.9428 C6.3989,78.5328 5.0949,78.3548 4.3799,77.4528 C3.7549,76.6648 3.1149,75.3538 2.7189,73.1718 C1.7059,67.5878 -3.2001,51.4748 3.4509,40.1678 C10.4489,28.2708 41.7579,-2.9092 61.1219,1.2088 C74.1509,3.9788 82.2749,23.0458 67.4209,34.5738 C52.4399,46.2008 34.9429,38.4528 30.1769,52.4198 C27.5869,60.0098 20.5209,59.0788 20.5209,59.0788" id="Fill-96" fill="#d8cfcf"/></g></g></g></g><g id="Expression" transform="translate(315.000000, 246.000000) scale(1 1)"><defs><path d="M2.973,1.055 C-0.453,2.37 -2.944,13.004 10.567,16.001 L10.567,16.001 C16.271,17.266 19.387,14.583 19.536,11.9 L19.536,11.9 C19.665,9.554 17.527,7.208 12.869,7.501 L12.869,7.501 C11.822,7.568 10.572,7.073 9.905,5.972 L9.905,5.972 C8.651,3.902 7.906,0.626 4.999,0.626 L4.999,0.626 C4.417,0.626 3.749,0.757 2.973,1.055" id="expressionlaugh-path-1"/></defs><g id="Expression/Laugh" stroke="none" stroke-width="1" fill="none" fill-rule="evenodd"><g id="Group-77" transform="translate(13.400000, 13.300000)"><g id="Group-3" transform="translate(0.000000, 0.116900)"><g id="Group" transform="translate(0.000000, 15.000000)"><path d="M2.973,1.0549 C-0.453,2.3699 -2.944,13.0039 10.567,15.9999 C21.261,18.3719 22.855,6.8709 12.869,7.5009 C11.822,7.5679 10.571,7.0739 9.904,5.9719 C8.4,3.4879 7.63,-0.7321 2.973,1.0549" id="Fill-37" fill="#060606"/><g id="Group-41"><mask id="expressionlaugh-mask-2" fill="#ffffff"><use xlink:href="#expressionlaugh-path-1" fill="#f3f5f3"/></mask><g id="Clip-40"/><path d="M-3.2101,3.4943 C-3.2101,3.4943 1.3509,2.7393 5.4389,7.3023 C9.5279,11.8643 9.1349,18.8593 9.1349,18.8593 C9.1349,18.8593 -6.6571,11.2823 -3.2101,3.4943" id="Fill-39" fill="#918b8b" mask="url(#expressionlaugh-mask-2)"/></g></g><g id="Group-46" transform="translate(3.000000, 0.000000)"><path d="M3.1312,6.052 C3.7892,6.555 4.7312,6.427 5.2332,5.769 C7.2772,3.086 9.8032,4.136 10.1002,4.271 C10.8412,4.624 11.7342,4.313 12.0932,3.571 C12.4552,2.825 12.1432,1.928 11.3982,1.566 C10.3642,1.065 8.4892,0.66 6.5312,1.268 C5.2702,1.659 3.9732,2.472 2.8462,3.95 C2.3442,4.61 2.4722,5.55 3.1312,6.052" id="Fill-42" fill="#060606"/><path d="M4.6669,6.3596 C4.6669,7.0556 3.7149,7.6196 2.5399,7.6196 C1.3649,7.6196 0.4129,7.0556 0.4129,6.3596 C0.4129,5.6646 1.3649,5.0996 2.5399,5.0996 C3.7149,5.0996 4.6669,5.6646 4.6669,6.3596" id="Fill-44" fill="#f3f5f3"/></g></g></g></g></g><g id="Facial Hair" transform="translate(311.300000, 250.950000) scale(1 1)"><g id="Facial Hair/Stubble" stroke="none" stroke-width="1" fill="none" fill-rule="evenodd"><g id="Group-88" transform="translate(10.000000, 30.000000)" fill="#d8cfcf"><g id="Group-36" transform="translate(0.000000, 0.609100)"><path d="M5.32,1.6297 C5.224,1.2817 4.955,0.9047 4.631,0.7337 C4.282,0.5497 3.861,0.4567 3.475,0.5817 C3.107,0.7007 2.772,0.9257 2.578,1.2717 C2.114,2.1017 1.65,2.9317 1.186,3.7617 C0.993,4.1057 0.929,4.5347 1.034,4.9167 C1.13,5.2657 1.399,5.6427 1.724,5.8137 C2.072,5.9977 2.494,6.0897 2.88,5.9647 C3.248,5.8457 3.583,5.6207 3.776,5.2757 C4.24,4.4457 4.705,3.6157 5.169,2.7857 C5.361,2.4417 5.425,2.0127 5.32,1.6297" id="Fill-20"/><path d="M11.1672,5.2743 C10.9852,4.9623 10.6282,4.6663 10.2712,4.5853 C9.8872,4.4973 9.4562,4.5163 9.1152,4.7363 C8.7862,4.9483 8.5302,5.2483 8.4252,5.6323 C8.1932,6.4843 7.9612,7.3373 7.7292,8.1883 C7.6262,8.5643 7.6832,9.0073 7.8802,9.3443 C8.0622,9.6553 8.4182,9.9523 8.7762,10.0343 C9.1602,10.1213 9.5912,10.1023 9.9322,9.8813 C10.2602,9.6703 10.5172,9.3703 10.6212,8.9863 C10.8542,8.1333 11.0862,7.2823 11.3182,6.4293 C11.4212,6.0533 11.3642,5.6113 11.1672,5.2743" id="Fill-22"/><path d="M19.0901,10.9686 C19.0801,10.5776 18.9301,10.1876 18.6511,9.9076 C18.5151,9.7616 18.3541,9.6576 18.1681,9.5976 C17.9891,9.5036 17.7971,9.4606 17.5901,9.4686 C17.2021,9.4866 16.8001,9.6136 16.5291,9.9076 C16.2641,10.1976 16.0791,10.5666 16.0901,10.9686 C16.1091,11.6706 16.1271,12.3726 16.1451,13.0746 C16.1551,13.4656 16.3061,13.8566 16.5851,14.1356 C16.7201,14.2816 16.8821,14.3856 17.0681,14.4466 C17.2461,14.5396 17.4391,14.5826 17.6451,14.5746 C18.0331,14.5576 18.4361,14.4306 18.7061,14.1356 C18.9711,13.8466 19.1561,13.4776 19.1451,13.0746 C19.1271,12.3726 19.1091,11.6706 19.0901,10.9686" id="Fill-24"/><path d="M26.2043,13.3348 C25.9733,12.7758 25.7433,12.2188 25.5123,11.6598 C25.4663,11.4658 25.3763,11.2948 25.2443,11.1498 C25.1383,10.9868 24.9973,10.8578 24.8233,10.7648 C24.6513,10.6538 24.4653,10.5948 24.2653,10.5858 C24.0663,10.5418 23.8663,10.5498 23.6673,10.6118 C23.3043,10.7308 22.9543,10.9548 22.7703,11.3018 L22.6193,11.6598 C22.5483,11.9268 22.5483,12.1918 22.6193,12.4578 C22.8503,13.0168 23.0803,13.5738 23.3113,14.1328 C23.3573,14.3278 23.4473,14.4978 23.5793,14.6428 C23.6853,14.8058 23.8263,14.9348 24.0003,15.0288 C24.1733,15.1388 24.3583,15.1978 24.5583,15.2068 C24.7573,15.2518 24.9573,15.2428 25.1563,15.1808 C25.5193,15.0628 25.8693,14.8378 26.0533,14.4908 C26.1033,14.3718 26.1533,14.2518 26.2043,14.1328 C26.2753,13.8668 26.2753,13.6008 26.2043,13.3348" id="Fill-26"/><path d="M31.0661,10.1327 C30.4821,9.5537 29.8971,8.9737 29.3121,8.3947 C29.0381,8.1227 28.6381,7.9547 28.2521,7.9547 C28.0451,7.9467 27.8531,7.9897 27.6741,8.0837 C27.4881,8.1447 27.3271,8.2477 27.1911,8.3947 C26.9291,8.6807 26.7331,9.0557 26.7521,9.4547 C26.7701,9.8527 26.9031,10.2307 27.1911,10.5157 C27.7751,11.0947 28.3601,11.6747 28.9451,12.2537 C29.2191,12.5257 29.6191,12.6937 30.0051,12.6937 C30.2121,12.7007 30.4041,12.6577 30.5831,12.5647 C30.7691,12.5037 30.9301,12.4007 31.0661,12.2537 C31.3281,11.9677 31.5241,11.5927 31.5051,11.1937 C31.4871,10.7957 31.3541,10.4177 31.0661,10.1327" id="Fill-28"/><path d="M14.4529,11.6678 C14.4439,11.4688 14.3849,11.2818 14.2749,11.1098 C14.1809,10.9358 14.0519,10.7958 13.8889,10.6888 C13.7439,10.5568 13.5739,10.4678 13.3789,10.4208 C13.2449,10.4028 13.1129,10.3858 12.9799,10.3668 C12.7089,10.3678 12.4559,10.4368 12.2229,10.5718 C11.8919,10.7858 11.6439,11.0838 11.5339,11.4688 C11.3699,12.0368 11.2069,12.6048 11.0439,13.1738 C10.9809,13.3728 10.9719,13.5718 11.0169,13.7718 C11.0259,13.9718 11.0849,14.1568 11.1949,14.3288 C11.2889,14.5038 11.4179,14.6448 11.5809,14.7498 C11.7259,14.8828 11.8959,14.9728 12.0909,15.0188 C12.2239,15.0358 12.3569,15.0548 12.4899,15.0718 C12.7609,15.0708 13.0129,15.0028 13.2469,14.8668 C13.5779,14.6538 13.8259,14.3558 13.9359,13.9708 C14.0999,13.4028 14.2629,12.8348 14.4259,12.2668 C14.4889,12.0668 14.4969,11.8668 14.4529,11.6678" id="Fill-30"/><path d="M6.0075,11.286 C5.9615,11.091 5.8715,10.921 5.7395,10.776 C5.6335,10.612 5.4935,10.484 5.3185,10.39 C4.9705,10.206 4.5485,10.114 4.1625,10.238 C3.7955,10.357 3.4585,10.582 3.2655,10.928 C2.9685,11.463 2.6725,11.998 2.3755,12.533 C2.2655,12.705 2.2065,12.89 2.1965,13.091 C2.1525,13.29 2.1615,13.489 2.2235,13.688 C2.2705,13.884 2.3595,14.054 2.4925,14.198 C2.5975,14.362 2.7385,14.491 2.9135,14.585 C3.2615,14.768 3.6825,14.861 4.0695,14.736 C4.4365,14.617 4.7735,14.392 4.9655,14.047 L5.8565,12.442 C5.9655,12.269 6.0255,12.084 6.0345,11.885 C6.0795,11.684 6.0695,11.485 6.0075,11.286" id="Fill-32"/></g></g></g></g><g id="Accesories" transform="translate(311.300000, 250.950000) scale(1 1)"><g id="Accesories/Shades" stroke="none" stroke-width="1" fill="none" fill-rule="evenodd"><g id="Group-88" transform="translate(3.000000, 4.000000)"><g id="Group-68" transform="translate(0.000000, 0.609100)"><path d="M35.4573,0.4647 L11.9853,1.0267 L1.8143,1.0267 C0.9853,1.0267 0.3143,1.6977 0.3143,2.5267 C0.3143,3.3547 0.9853,4.0267 1.8143,4.0267 L11.3063,4.0267 L24.9973,12.4327 C25.5673,12.7817 26.3013,12.7047 26.7853,12.2447 L36.5083,3.0087 C37.4873,2.0787 36.8073,0.4327 35.4573,0.4647" id="Fill-64" fill="#060606"/><path d="M22.5808,8.6747 C22.1588,8.6747 21.9328,8.4907 21.7228,8.2467 C21.5258,8.0177 21.1618,7.4017 21.8648,6.4987 C21.5298,6.4727 21.2538,6.3657 21.0548,6.1047 C20.7198,5.6647 20.8048,5.0377 21.2438,4.7027 C24.6038,2.1447 25.4388,2.4767 25.7958,2.6197 C26.1608,2.7657 26.4258,3.0787 26.5058,3.4587 C26.5998,3.9077 26.4478,4.3457 26.0228,4.9247 C26.3948,4.6997 26.8078,4.4467 27.2628,4.1617 C30.0648,2.4017 31.2778,1.7857 31.9928,2.7847 C32.2368,3.1277 32.9808,4.1677 28.3408,7.9267 C27.9118,8.2727 27.2808,8.2067 26.9348,7.7787 C26.7058,7.4957 26.6558,7.1267 26.7708,6.8087 C24.4088,8.2137 23.2488,8.6747 22.5808,8.6747" id="Fill-66" fill="#f3f5f3"/></g></g></g></g></g></g></g></svg>