<svg xmlns="http://www.w3.org/2000/svg" viewBox="0 0 169.75 166.75"><defs><style>.a{fill:#231f20;}.b{fill:#e2e2e2;}</style></defs><rect class="a" x="9" y="6" width="160.75" height="160.75" rx="42.81"/><rect class="b" x="1" y="1" width="160.75" height="160.75" rx="42.81"/><rect class="b" width="160.75" height="160.75" rx="42.81"/><path class="a" d="M106.94,59a41.79,41.79,0,0,1-4.86,12.89,52,52,0,0,1-5.36,7.34A24.86,24.86,0,0,0,91.57,72a19.37,19.37,0,0,0-7.14-4.46,15.69,15.69,0,0,0-6.15-1.09,16.81,16.81,0,0,0-5.35.79,18,18,0,0,0-5.56,2.93,14.94,14.94,0,0,0-4,4.61A14.66,14.66,0,0,0,61.62,82a16.1,16.1,0,0,0,1.59,7.13,19.38,19.38,0,0,0,5.5,7.24,18.1,18.1,0,0,0,8,3.87,26.49,26.49,0,0,0,4.75.5,20.57,20.57,0,0,0,4.17-.4,68.65,68.65,0,0,1-4.86,15.37,62.21,62.21,0,0,1-5.65,9.91L44.87,59H29.5l32,71.13a13.92,13.92,0,0,0,12.68,8.19h0a14,14,0,0,0,11.34-5.85,67.23,67.23,0,0,0,6.84-11.6,78.6,78.6,0,0,0,6.25-20.32c.32-2.53.54-4.43.64-5.69a1.78,1.78,0,0,1,.67-1.25l1.86-1.49a56.17,56.17,0,0,0,11.4-13.78,61.16,61.16,0,0,0,4.22-9.27A66,66,0,0,0,120.32,59ZM81.26,87.89a9.77,9.77,0,0,1-1.89-.19,6,6,0,0,1-2.63-1.39,8.29,8.29,0,0,1-1.93-2.48,4.79,4.79,0,0,1-.4-1.69,2.65,2.65,0,0,1,.3-1.19,3.3,3.3,0,0,1,1.49-1.24,5.37,5.37,0,0,1,2.18-.44,6.22,6.22,0,0,1,4.36,2,11.46,11.46,0,0,1,3,5.11l.2.59A13.12,13.12,0,0,1,81.26,87.89Z"/><path class="a" d="M130.76,32.66a6.19,6.19,0,0,1,.4,3.33,6.12,6.12,0,0,1-1.34,3.09l-.42.51a4.38,4.38,0,0,1,.42.51,6.08,6.08,0,0,1,1.42,4,6.5,6.5,0,0,1-.46,2.41,6.1,6.1,0,0,1-3.41,3.44,6.53,6.53,0,0,1-2.45.52,5.58,5.58,0,0,1-.06.66,6.52,6.52,0,0,1-1.22,3.17,6.36,6.36,0,0,1-2.66,2,6.22,6.22,0,0,1-3.8.35A6.07,6.07,0,0,1,114.06,55,6.64,6.64,0,0,1,112,56.35a6.1,6.1,0,0,1-4.85,0,6.44,6.44,0,0,1-2-1.37,6.16,6.16,0,0,1-1.39-2,5.66,5.66,0,0,1-.44-1.78,3.33,3.33,0,0,1-.06-.65l-.66-.06a6.36,6.36,0,0,1-4.29-10.32,3.91,3.91,0,0,1,.43-.47,4.82,4.82,0,0,0-.42-.51,5.61,5.61,0,0,1-1-1.59,6.61,6.61,0,0,1-.5-2.41,6,6,0,0,1,.49-2.42,6.39,6.39,0,0,1,3.48-3.45,6.7,6.7,0,0,1,2.34-.5l.06-.49a6.18,6.18,0,0,1,1.14-3.1,6,6,0,0,1,2.67-2.1,6.07,6.07,0,0,1,3.21-.45,6.5,6.5,0,0,1,3,1.25,3.94,3.94,0,0,1,.63.5,7.41,7.41,0,0,1,2.23-1.48A6.32,6.32,0,0,1,123,24.23a6.67,6.67,0,0,1,1.36,2.05,5.85,5.85,0,0,1,.45,1.81,3.33,3.33,0,0,1,.07.65,5.56,5.56,0,0,1,.64,0A6.2,6.2,0,0,1,128.67,30,6.28,6.28,0,0,1,130.76,32.66Z"/></svg>